<svg xmlns="http://www.w3.org/2000/svg" xmlns:xlink="http://www.w3.org/1999/xlink" viewBox="0 0 800 600"><defs><style>.a{fill:#e7e7e7;}.b{fill:url(#a);}.c,.f{fill:none;stroke:#0f0f0f;stroke-miterlimit:10;stroke-width:3px;}.c{stroke-linecap:round;}.d{fill:#ff3369;}.e{fill:#ffb53f;}.g{fill:#0f0f0f;}.h{fill:#bf264f;isolation:isolate;opacity:0.7;}</style><linearGradient id="a" x1="401.05" y1="575.06" x2="401.05" y2="155.96" gradientTransform="matrix(1, 0, 0, -1, 0, 602)" gradientUnits="userSpaceOnUse"><stop offset="0" stop-color="#c9cad1"/><stop offset="1" stop-color="#e7e7e7"/></linearGradient></defs><path class="a" d="M40.4,19.44H759.6a23,23,0,0,1,22.9,22.9v518.2a23,23,0,0,1-22.9,22.9H40.4a23,23,0,0,1-22.9-22.9V42.34A23,23,0,0,1,40.4,19.44Z"/><polyline class="b" points="346.5 434.14 336.5 434.14 336.5 446.04 310.7 446.04 310.7 432.24 322.6 432.24 322.6 422.24 310.7 422.24 310.7 408.34 336.5 408.34 336.5 420.34 346.5 420.34 346.5 408.34 372.2 408.34 372.2 422.24 360.3 422.24 360.3 444.14 370.3 444.14 370.3 432.24 384.1 432.24 384.1 444.14 394.1 444.14 394.1 422.24 382.2 422.24 382.2 408.34 394.1 408.34 394.1 398.34 382.2 398.34 382.2 384.54 394.1 384.54 394.1 362.64 384.1 362.64 384.1 374.54 370.3 374.54 370.3 362.64 360.3 362.64 360.3 384.54 372.2 384.54 372.2 398.34 346.5 398.34 346.5 386.44 336.5 386.44 336.5 398.34 310.7 398.34 310.7 384.54 322.6 384.54 322.6 374.54 310.7 374.54 310.7 360.74 336.5 360.74 336.5 372.64 346.5 372.64 346.5 338.74 336.5 338.74 336.5 350.64 310.7 350.64 310.7 336.84 322.6 336.84 322.6 326.84 310.7 326.84 310.7 313.04 336.5 313.04 336.5 324.94 346.5 324.94 346.5 313.04 372.2 313.04 372.2 326.84 360.3 326.84 360.3 348.74 370.3 348.74 370.3 336.84 384.1 336.84 384.1 348.74 394.1 348.74 394.1 326.84 382.2 326.84 382.2 313.04 394.1 313.04 394.1 291.14 384.1 291.14 384.1 303.04 358.4 303.04 358.4 289.14 370.3 289.14 370.3 279.14 358.4 279.14 358.4 265.34 384.1 265.34 384.1 277.24 394.1 277.24 394.1 255.34 382.2 255.34 382.2 241.54 394.1 241.54 394.1 219.54 384.1 219.54 384.1 231.54 370.3 231.54 370.3 219.54 360.3 219.54 360.3 241.54 372.2 241.54 372.2 255.34 334.5 255.34 334.5 241.54 346.5 241.54 346.5 219.54 336.5 219.54 336.5 231.54 322.6 231.54 322.6 219.54 312.6 219.54 312.6 241.54 324.5 241.54 324.5 255.34 312.6 255.34 312.6 277.24 322.6 277.24 322.6 265.34 348.4 265.34 348.4 279.14 336.5 279.14 336.5 289.14 348.4 289.14 348.4 303.04 322.6 303.04 322.6 291.14 312.6 291.14 312.6 303.04 298.8 303.04 298.8 291.14 288.8 291.14 288.8 303.04 263 303.04 263 289.14 274.9 289.14 274.9 279.14 263 279.14 263 265.34 288.8 265.34 288.8 277.24 298.8 277.24 298.8 255.34 286.9 255.34 286.9 241.54 298.8 241.54 298.8 219.54 288.8 219.54 288.8 231.54 274.9 231.54 274.9 219.54 264.9 219.54 264.9 241.54 276.9 241.54 276.9 255.34 239.2 255.34 239.2 241.54 251.1 241.54 251.1 219.54 241.1 219.54 241.1 231.54 227.3 231.54 227.3 219.54 217.3 219.54 217.3 241.54 229.2 241.54 229.2 255.34 217.3 255.34 217.3 277.24 227.3 277.24 227.3 265.34 253 265.34 253 279.14 241.1 279.14 241.1 289.14 253 289.14 253 303.04 227.3 303.04 227.3 291.14 217.3 291.14 217.3 313.04 229.2 313.04 229.2 326.84 217.3 326.84 217.3 348.74 227.3 348.74 227.3 336.84 241.1 336.84 241.1 348.74 251.1 348.74 251.1 326.84 239.2 326.84 239.2 313.04 264.9 313.04 264.9 324.94 274.9 324.94 274.9 313.04 300.7 313.04 300.7 326.84 288.8 326.84 288.8 336.84 300.7 336.84 300.7 350.64 274.9 350.64 274.9 338.74 264.9 338.74 264.9 372.64 274.9 372.64 274.9 360.74 300.7 360.74 300.7 374.54 288.8 374.54 288.8 384.54 300.7 384.54 300.7 398.34 274.9 398.34 274.9 386.44 264.9 386.44 264.9 398.34 239.2 398.34 239.2 384.54 251.1 384.54 251.1 362.64 241.1 362.64 241.1 374.54 227.3 374.54 227.3 362.64 217.3 362.64 217.3 384.54 229.2 384.54 229.2 398.34 203.4 398.34 203.4 386.44 193.4 386.44 193.4 398.34 167.7 398.34 167.7 384.54 179.6 384.54 179.6 374.54 167.7 374.54 167.7 360.74 193.4 360.74 193.4 372.64 203.4 372.64 203.4 350.64 191.5 350.64 191.5 336.84 203.4 336.84 203.4 314.94 193.4 314.94 193.4 326.84 179.6 326.84 179.6 314.94 169.6 314.94 169.6 336.84 181.5 336.84 181.5 350.64 143.8 350.64 143.8 336.84 155.8 336.84 155.8 314.94 145.7 314.94 145.7 326.84 131.9 326.84 131.9 314.94 121.9 314.94 121.9 336.84 133.8 336.84 133.8 350.64 121.9 350.64 121.9 372.64 131.9 372.64 131.9 360.74 157.7 360.74 157.7 374.54 145.7 374.54 145.7 384.54 157.7 384.54 157.7 398.34 131.9 398.34 131.9 386.44 121.9 386.44 121.9 398.34 96.2 398.34 96.2 384.54 108.1 384.54 108.1 362.64 98.1 362.64 98.1 374.54 84.2 374.54 84.2 362.64 74.2 362.64 74.2 384.54 86.2 384.54 86.2 398.34 60.4 398.34 60.4 386.44 50.4 386.44 50.4 398.34 24.6 398.34 24.6 384.54 36.6 384.54 36.6 374.54 24.6 374.54 24.6 360.74 50.4 360.74 50.4 372.64 60.4 372.64 60.4 338.74 50.4 338.74 50.4 350.64 24.6 350.64 24.6 336.84 36.6 336.84 36.6 326.84 24.6 326.84 24.6 313.04 50.4 313.04 50.4 324.94 60.4 324.94 60.4 313.04 86.2 313.04 86.2 326.84 74.2 326.84 74.2 348.74 84.2 348.74 84.2 336.84 98.1 336.84 98.1 348.74 108.1 348.74 108.1 326.84 96.2 326.84 96.2 313.04 108.1 313.04 108.1 303.04 96.2 303.04 96.2 289.14 108.1 289.14 108.1 267.24 98.1 267.24 98.1 279.14 84.2 279.14 84.2 267.24 74.2 267.24 74.2 289.14 86.2 289.14 86.2 303.04 60.4 303.04 60.4 291.14 50.4 291.14 50.4 303.04 24.6 303.04 24.6 289.14 36.6 289.14 36.6 279.14 24.6 279.14 24.6 265.34 50.4 265.34 50.4 277.24 60.4 277.24 60.4 243.44 50.4 243.44 50.4 255.34 24.6 255.34 24.6 241.54 36.6 241.54 36.6 231.54 24.6 231.54 24.6 217.64 50.4 217.64 50.4 229.54 60.4 229.54 60.4 217.64 86.2 217.64 86.2 231.54 74.2 231.54 74.2 253.44 84.2 253.44 84.2 241.54 98.1 241.54 98.1 253.44 108.1 253.44 108.1 231.54 96.2 231.54 96.2 217.64 121.9 217.64 121.9 229.54 131.9 229.54 131.9 217.64 157.7 217.64 157.7 231.54 145.7 231.54 145.7 241.54 157.7 241.54 157.7 255.34 131.9 255.34 131.9 243.44 121.9 243.44 121.9 265.34 133.8 265.34 133.8 279.14 121.9 279.14 121.9 301.14 131.9 301.14 131.9 289.14 145.7 289.14 145.7 301.14 155.8 301.14 155.8 279.14 143.8 279.14 143.8 265.34 181.5 265.34 181.5 279.14 169.6 279.14 169.6 301.14 179.6 301.14 179.6 289.14 193.4 289.14 193.4 301.14 203.4 301.14 203.4 279.14 191.5 279.14 191.5 265.34 203.4 265.34 203.4 243.44 193.4 243.44 193.4 255.34 167.7 255.34 167.7 241.54 179.6 241.54 179.6 231.54 167.7 231.54 167.7 217.64 193.4 217.64 193.4 229.54 203.4 229.54 203.4 195.74 193.4 195.74 193.4 207.64 167.7 207.64 167.7 193.84 179.6 193.84 179.6 183.84 167.7 183.84 167.7 169.94 193.4 169.94 193.4 181.94 203.4 181.94 203.4 159.94 191.5 159.94 191.5 146.14 203.4 146.14 203.4 124.24 193.4 124.24 193.4 136.14 179.6 136.14 179.6 124.24 169.6 124.24 169.6 146.14 181.5 146.14 181.5 159.94 143.8 159.94 143.8 146.14 155.8 146.14 155.8 124.24 145.7 124.24 145.7 136.14 131.9 136.14 131.9 124.24 121.9 124.24 121.9 146.14 133.8 146.14 133.8 159.94 121.9 159.94 121.9 181.94 131.9 181.94 131.9 169.94 157.7 169.94 157.7 183.84 145.7 183.84 145.7 193.84 157.7 193.84 157.7 207.64 131.9 207.64 131.9 195.74 121.9 195.74 121.9 207.64 96.2 207.64 96.2 193.84 108.1 193.84 108.1 171.94 98.1 171.94 98.1 183.84 84.2 183.84 84.2 171.94 74.2 171.94 74.2 193.84 86.2 193.84 86.2 207.64 60.4 207.64 60.4 195.74 50.4 195.74 50.4 207.64 24.6 207.64 24.6 193.84 36.6 193.84 36.6 183.84 24.6 183.84 24.6 169.94 50.4 169.94 50.4 181.94 60.4 181.94 60.4 148.04 50.4 148.04 50.4 159.94 24.6 159.94 24.6 146.14 36.6 146.14 36.6 136.14 24.6 136.14 24.6 122.34 50.4 122.34 50.4 134.24 60.4 134.24 60.4 122.34 86.2 122.34 86.2 136.14 74.2 136.14 74.2 158.04 84.2 158.04 84.2 146.14 98.1 146.14 98.1 158.04 108.1 158.04 108.1 136.14 96.2 136.14 96.2 122.34 108.1 122.34 108.1 112.34 96.2 112.34 96.2 98.44 108.1 98.44 108.1 76.54 98.1 76.54 98.1 88.44 84.2 88.44 84.2 76.54 74.2 76.54 74.2 98.44 86.2 98.44 86.2 112.34 60.4 112.34 60.4 100.34 50.4 100.34 50.4 112.34 24.6 112.34 24.6 98.44 36.6 98.44 36.6 88.44 24.6 88.44 24.6 74.64 50.4 74.64 50.4 86.54 60.4 86.54 60.4 52.74 50.4 52.74 50.4 64.64 24.6 64.64 24.6 50.84 36.6 50.84 36.6 40.74 24.6 40.74 24.6 26.94 50.4 26.94 50.4 38.84 60.4 38.84 60.4 26.94 86.2 26.94 86.2 40.74 74.2 40.74 74.2 62.74 84.2 62.74 84.2 50.84 98.1 50.84 98.1 62.74 108.1 62.74 108.1 40.74 96.2 40.74 96.2 26.94 121.9 26.94 121.9 38.84 131.9 38.84 131.9 26.94 157.7 26.94 157.7 40.74 145.7 40.74 145.7 50.84 157.7 50.84 157.7 64.64 131.9 64.64 131.9 52.74 121.9 52.74 121.9 74.64 133.8 74.64 133.8 88.44 121.9 88.44 121.9 110.44 131.9 110.44 131.9 98.44 145.7 98.44 145.7 110.44 155.8 110.44 155.8 88.44 143.8 88.44 143.8 74.64 181.5 74.64 181.5 88.44 169.6 88.44 169.6 110.44 179.6 110.44 179.6 98.44 193.4 98.44 193.4 110.44 203.4 110.44 203.4 88.44 191.5 88.44 191.5 74.64 203.4 74.64 203.4 52.74 193.4 52.74 193.4 64.64 167.7 64.64 167.7 50.84 179.6 50.84 179.6 40.74 167.7 40.74 167.7 26.94 193.4 26.94 193.4 38.84 203.4 38.84 203.4 26.94 229.2 26.94 229.2 40.74 217.3 40.74 217.3 62.74 227.3 62.74 227.3 50.84 241.1 50.84 241.1 62.74 251.1 62.74 251.1 40.74 239.2 40.74 239.2 26.94 264.9 26.94 264.9 38.84 274.9 38.84 274.9 26.94 300.7 26.94 300.7 40.74 288.8 40.74 288.8 50.84 300.7 50.84 300.7 64.64 274.9 64.64 274.9 52.74 264.9 52.74 264.9 86.54 274.9 86.54 274.9 74.64 300.7 74.64 300.7 88.44 288.8 88.44 288.8 98.44 300.7 98.44 300.7 112.34 274.9 112.34 274.9 100.34 264.9 100.34 264.9 112.34 239.2 112.34 239.2 98.44 251.1 98.44 251.1 76.54 241.1 76.54 241.1 88.44 227.3 88.44 227.3 76.54 217.3 76.54 217.3 98.44 229.2 98.44 229.2 112.34 217.3 112.34 217.3 134.24 227.3 134.24 227.3 122.34 253 122.34 253 136.14 241.1 136.14 241.1 146.14 253 146.14 253 159.94 227.3 159.94 227.3 148.04 217.3 148.04 217.3 169.94 229.2 169.94 229.2 183.84 217.3 183.84 217.3 205.74 227.3 205.74 227.3 193.84 241.1 193.84 241.1 205.74 251.1 205.74 251.1 183.84 239.2 183.84 239.2 169.94 276.9 169.94 276.9 183.84 264.9 183.84 264.9 205.74 274.9 205.74 274.9 193.84 288.8 193.84 288.8 205.74 298.8 205.74 298.8 183.84 286.9 183.84 286.9 169.94 298.8 169.94 298.8 148.04 288.8 148.04 288.8 159.94 263 159.94 263 146.14 274.9 146.14 274.9 136.14 263 136.14 263 122.34 288.8 122.34 288.8 134.24 298.8 134.24 298.8 122.34 312.6 122.34 312.6 134.24 322.6 134.24 322.6 122.34 348.4 122.34 348.4 136.14 336.5 136.14 336.5 146.14 348.4 146.14 348.4 159.94 322.6 159.94 322.6 148.04 312.6 148.04 312.6 169.94 324.5 169.94 324.5 183.84 312.6 183.84 312.6 205.74 322.6 205.74 322.6 193.84 336.5 193.84 336.5 205.74 346.5 205.74 346.5 183.84 334.5 183.84 334.5 169.94 372.2 169.94 372.2 183.84 360.3 183.84 360.3 205.74 370.3 205.74 370.3 193.84 384.1 193.84 384.1 205.74 394.1 205.74 394.1 183.84 382.2 183.84 382.2 169.94 394.1 169.94 394.1 148.04 384.1 148.04 384.1 159.94 358.4 159.94 358.4 146.14 370.3 146.14 370.3 136.14 358.4 136.14 358.4 122.34 384.1 122.34 384.1 134.24 394.1 134.24 394.1 112.34 382.2 112.34 382.2 98.44 394.1 98.44 394.1 76.54 384.1 76.54 384.1 88.44 370.3 88.44 370.3 76.54 360.3 76.54 360.3 98.44 372.2 98.44 372.2 112.34 346.5 112.34 346.5 100.34 336.5 100.34 336.5 112.34 310.7 112.34 310.7 98.44 322.6 98.44 322.6 88.44 310.7 88.44 310.7 74.64 336.5 74.64 336.5 86.54 346.5 86.54 346.5 52.74 336.5 52.74 336.5 64.64 310.7 64.64 310.7 50.84 322.6 50.84 322.6 40.74 310.7 40.74 310.7 26.94 336.5 26.94 336.5 38.84 346.5 38.84 346.5 26.94 372.2 26.94 372.2 40.74 360.3 40.74 360.3 62.74 370.3 62.74 370.3 50.84 384.1 50.84 384.1 62.74 394.1 62.74 394.1 40.74 382.2 40.74 382.2 26.94 408 26.94 408 38.84 418 38.84 418 26.94 443.7 26.94 443.7 40.74 431.8 40.74 431.8 50.84 443.7 50.84 443.7 64.64 418 64.64 418 52.74 408 52.74 408 74.64 419.9 74.64 419.9 88.44 408 88.44 408 110.44 418 110.44 418 98.44 431.8 98.44 431.8 110.44 441.8 110.44 441.8 88.44 429.9 88.44 429.9 74.64 467.6 74.64 467.6 88.44 455.6 88.44 455.6 110.44 465.7 110.44 465.7 98.44 479.5 98.44 479.5 110.44 489.5 110.44 489.5 88.44 477.6 88.44 477.6 74.64 489.5 74.64 489.5 52.74 479.5 52.74 479.5 64.64 453.7 64.64 453.7 50.84 465.7 50.84 465.7 40.74 453.7 40.74 453.7 26.94 479.5 26.94 479.5 38.84 489.5 38.84 489.5 26.94 515.2 26.94 515.2 40.74 503.3 40.74 503.3 62.74 513.3 62.74 513.3 50.84 527.2 50.84 527.2 62.74 537.2 62.74 537.2 40.74 525.3 40.74 525.3 26.94 551 26.94 551 38.84 561 38.84 561 26.94 586.8 26.94 586.8 40.74 574.8 40.74 574.8 50.84 586.8 50.84 586.8 64.64 561 64.64 561 52.74 551 52.74 551 86.54 561 86.54 561 74.64 586.8 74.64 586.8 88.44 574.8 88.44 574.8 98.44 586.8 98.44 586.8 112.34 561 112.34 561 100.34 551 100.34 551 112.34 525.3 112.34 525.3 98.44 537.2 98.44 537.2 76.54 527.2 76.54 527.2 88.44 513.3 88.44 513.3 76.54 503.3 76.54 503.3 98.44 515.2 98.44 515.2 112.34 503.3 112.34 503.3 122.34 515.2 122.34 515.2 136.14 503.3 136.14 503.3 158.04 513.3 158.04 513.3 146.14 527.2 146.14 527.2 158.04 537.2 158.04 537.2 136.14 525.3 136.14 525.3 122.34 551 122.34 551 134.24 561 134.24 561 122.34 586.8 122.34 586.8 136.14 574.8 136.14 574.8 146.14 586.8 146.14 586.8 159.94 561 159.94 561 148.04 551 148.04 551 181.94 561 181.94 561 169.94 586.8 169.94 586.8 183.84 574.8 183.84 574.8 193.84 586.8 193.84 586.8 207.64 561 207.64 561 195.74 551 195.74 551 207.64 525.3 207.64 525.3 193.84 537.2 193.84 537.2 171.94 527.2 171.94 527.2 183.84 513.3 183.84 513.3 171.94 503.3 171.94 503.3 193.84 515.2 193.84 515.2 207.64 489.5 207.64 489.5 195.74 479.5 195.74 479.5 207.64 453.7 207.64 453.7 193.84 465.7 193.84 465.7 183.84 453.7 183.84 453.7 169.94 479.5 169.94 479.5 181.94 489.5 181.94 489.5 159.94 477.6 159.94 477.6 146.14 489.5 146.14 489.5 124.24 479.5 124.24 479.5 136.14 465.7 136.14 465.7 124.24 455.6 124.24 455.6 146.14 467.6 146.14 467.6 159.94 429.9 159.94 429.9 146.14 441.8 146.14 441.8 124.24 431.8 124.24 431.8 136.14 418 136.14 418 124.24 408 124.24 408 146.14 419.9 146.14 419.9 159.94 408 159.94 408 181.94 418 181.94 418 169.94 443.7 169.94 443.7 183.84 431.8 183.84 431.8 193.84 443.7 193.84 443.7 207.64 418 207.64 418 195.74 408 195.74 408 217.64 419.9 217.64 419.9 231.54 408 231.54 408 253.44 418 253.44 418 241.54 431.8 241.54 431.8 253.44 441.8 253.44 441.8 231.54 429.9 231.54 429.9 217.64 455.6 217.64 455.6 229.54 465.7 229.54 465.7 217.64 491.4 217.64 491.4 231.54 479.5 231.54 479.5 241.54 491.4 241.54 491.4 255.34 465.7 255.34 465.7 243.44 455.6 243.44 455.6 277.24 465.7 277.24 465.7 265.34 491.4 265.34 491.4 279.14 479.5 279.14 479.5 289.14 491.4 289.14 491.4 303.04 465.7 303.04 465.7 291.14 455.6 291.14 455.6 303.04 429.9 303.04 429.9 289.14 441.8 289.14 441.8 267.24 431.8 267.24 431.8 279.14 418 279.14 418 267.24 408 267.24 408 289.14 419.9 289.14 419.9 303.04 408 303.04 408 324.94 418 324.94 418 313.04 443.7 313.04 443.7 326.84 431.8 326.84 431.8 336.84 443.7 336.84 443.7 350.64 418 350.64 418 338.74 408 338.74 408 360.74 419.9 360.74 419.9 374.54 408 374.54 408 396.44 418 396.44 418 384.54 431.8 384.54 431.8 396.44 441.8 396.44 441.8 374.54 429.9 374.54 429.9 360.74 467.6 360.74 467.6 374.54 455.6 374.54 455.6 396.44 465.7 396.44 465.7 384.54 479.5 384.54 479.5 396.44 489.5 396.44 489.5 374.54 477.6 374.54 477.6 360.74 489.5 360.74 489.5 338.74 479.5 338.74 479.5 350.64 453.7 350.64 453.7 336.84 465.7 336.84 465.7 326.84 453.7 326.84 453.7 313.04 479.5 313.04 479.5 324.94 489.5 324.94 489.5 313.04 503.3 313.04 503.3 324.94 513.3 324.94 513.3 313.04 539.1 313.04 539.1 326.84 527.2 326.84 527.2 336.84 539.1 336.84 539.1 350.64 513.3 350.64 513.3 338.74 503.3 338.74 503.3 360.74 515.2 360.74 515.2 374.54 503.3 374.54 503.3 396.44 513.3 396.44 513.3 384.54 527.2 384.54 527.2 396.44 537.2 396.44 537.2 374.54 525.3 374.54 525.3 360.74 562.9 360.74 562.9 374.54 551 374.54 551 396.44 561 396.44 561 384.54 574.8 384.54 574.8 396.44 584.9 396.44 584.9 374.54 572.9 374.54 572.9 360.74 584.9 360.74 584.9 338.74 574.8 338.74 574.8 350.64 549.1 350.64 549.1 336.84 561 336.84 561 326.84 549.1 326.84 549.1 313.04 574.8 313.04 574.8 324.94 584.9 324.94 584.9 303.04 572.9 303.04 572.9 289.14 584.9 289.14 584.9 267.24 574.8 267.24 574.8 279.14 561 279.14 561 267.24 551 267.24 551 289.14 562.9 289.14 562.9 303.04 537.2 303.04 537.2 291.14 527.2 291.14 527.2 303.04 501.4 303.04 501.4 289.14 513.3 289.14 513.3 279.14 501.4 279.14 501.4 265.34 527.2 265.34 527.2 277.24 537.2 277.24 537.2 243.44 527.2 243.44 527.2 255.34 501.4 255.34 501.4 241.54 513.3 241.54 513.3 231.54 501.4 231.54 501.4 217.64 527.2 217.64 527.2 229.54 537.2 229.54 537.2 217.64 562.9 217.64 562.9 231.54 551 231.54 551 253.44 561 253.44 561 241.54 574.8 241.54 574.8 253.44 584.9 253.44 584.9 231.54 572.9 231.54 572.9 217.64 610.6 217.64 610.6 231.54 598.7 231.54 598.7 253.44 608.7 253.44 608.7 241.54 622.5 241.54 622.5 253.44 632.5 253.44 632.5 231.54 620.6 231.54 620.6 217.64 646.4 217.64 646.4 229.54 656.4 229.54 656.4 217.64 682.1 217.64 682.1 231.54 670.2 231.54 670.2 241.54 682.1 241.54 682.1 255.34 656.4 255.34 656.4 243.44 646.4 243.44 646.4 277.24 656.4 277.24 656.4 265.34 682.1 265.34 682.1 279.14 670.2 279.14 670.2 289.14 682.1 289.14 682.1 303.04 656.4 303.04 656.4 291.14 646.4 291.14 646.4 303.04 620.6 303.04 620.6 289.14 632.5 289.14 632.5 267.24 622.5 267.24 622.5 279.14 608.7 279.14 608.7 267.24 598.7 267.24 598.7 289.14 610.6 289.14 610.6 303.04 598.7 303.04 598.7 324.94 608.7 324.94 608.7 313.04 634.4 313.04 634.4 326.84 622.5 326.84 622.5 336.84 634.4 336.84 634.4 350.64 608.7 350.64 608.7 338.74 598.7 338.74 598.7 360.74 610.6 360.74 610.6 374.54 598.7 374.54 598.7 396.44 608.7 396.44 608.7 384.54 622.5 384.54 622.5 396.44 632.5 396.44 632.5 374.54 620.6 374.54 620.6 360.74 658.3 360.74 658.3 374.54 646.4 374.54 646.4 396.44 656.4 396.44 656.4 384.54 670.2 384.54 670.2 396.44 680.2 396.44 680.2 374.54 668.3 374.54 668.3 360.74 680.2 360.74 680.2 338.74 670.2 338.74 670.2 350.64 644.4 350.64 644.4 336.84 656.4 336.84 656.4 326.84 644.4 326.84 644.4 313.04 670.2 313.04 670.2 324.94 680.2 324.94 680.2 313.04 694 313.04 694 324.94 704 324.94 704 313.04 729.8 313.04 729.8 326.84 717.9 326.84 717.9 336.84 729.8 336.84 729.8 350.64 704 350.64 704 338.74 694 338.74 694 360.74 706 360.74 706 374.54 694 374.54 694 396.44 704 396.44 704 384.54 717.9 384.54 717.9 396.44 727.9 396.44 727.9 374.54 716 374.54 716 360.74 753.6 360.74 753.6 374.54 741.7 374.54 741.7 396.44 751.7 396.44 751.7 384.54 765.6 384.54 765.6 396.44 775.6 396.44 775.6 374.54 763.6 374.54 763.6 360.74 775.6 360.74 775.6 338.74 765.6 338.74 765.6 350.64 739.8 350.64 739.8 336.84 751.7 336.84 751.7 326.84 739.8 326.84 739.8 313.04 765.6 313.04 765.6 324.94 775.6 324.94 775.6 303.04 763.6 303.04 763.6 289.14 775.6 289.14 775.6 267.24 765.6 267.24 765.6 279.14 751.7 279.14 751.7 267.24 741.7 267.24 741.7 289.14 753.6 289.14 753.6 303.04 727.9 303.04 727.9 291.14 717.9 291.14 717.9 303.04 692.1 303.04 692.1 289.14 704 289.14 704 279.14 692.1 279.14 692.1 265.34 717.9 265.34 717.9 277.24 727.9 277.24 727.9 243.44 717.9 243.44 717.9 255.34 692.1 255.34 692.1 241.54 704 241.54 704 231.54 692.1 231.54 692.1 217.64 717.9 217.64 717.9 229.54 727.9 229.54 727.9 217.64 753.6 217.64 753.6 231.54 741.7 231.54 741.7 253.44 751.7 253.44 751.7 241.54 765.6 241.54 765.6 253.44 775.6 253.44 775.6 231.54 763.6 231.54 763.6 217.64 775.6 217.64 775.6 195.74 765.6 195.74 765.6 207.64 739.8 207.64 739.8 193.84 751.7 193.84 751.7 183.84 739.8 183.84 739.8 169.94 765.6 169.94 765.6 181.94 775.6 181.94 775.6 159.94 763.6 159.94 763.6 146.14 775.6 146.14 775.6 124.24 765.6 124.24 765.6 136.14 751.7 136.14 751.7 124.24 741.7 124.24 741.7 146.14 753.6 146.14 753.6 159.94 716 159.94 716 146.14 727.9 146.14 727.9 124.24 717.9 124.24 717.9 136.14 704 136.14 704 124.24 694 124.24 694 146.14 706 146.14 706 159.94 694 159.94 694 181.94 704 181.94 704 169.94 729.8 169.94 729.8 183.84 717.9 183.84 717.9 193.84 729.8 193.84 729.8 207.64 704 207.64 704 195.74 694 195.74 694 207.64 668.3 207.64 668.3 193.84 680.2 193.84 680.2 171.94 670.2 171.94 670.2 183.84 656.4 183.84 656.4 171.94 646.4 171.94 646.4 193.84 658.3 193.84 658.3 207.64 632.5 207.64 632.5 195.74 622.5 195.74 622.5 207.64 596.8 207.64 596.8 193.84 608.7 193.84 608.7 183.84 596.8 183.84 596.8 169.94 622.5 169.94 622.5 181.94 632.5 181.94 632.5 148.04 622.5 148.04 622.5 159.94 596.8 159.94 596.8 146.14 608.7 146.14 608.7 136.14 596.8 136.14 596.8 122.34 622.5 122.34 622.5 134.24 632.5 134.24 632.5 122.34 658.3 122.34 658.3 136.14 646.4 136.14 646.4 158.04 656.4 158.04 656.4 146.14 670.2 146.14 670.2 158.04 680.2 158.04 680.2 136.14 668.3 136.14 668.3 122.34 680.2 122.34 680.2 112.34 668.3 112.34 668.3 98.44 680.2 98.44 680.2 76.54 670.2 76.54 670.2 88.44 656.4 88.44 656.4 76.54 646.4 76.54 646.4 98.44 658.3 98.44 658.3 112.34 632.5 112.34 632.5 100.34 622.5 100.34 622.5 112.34 596.8 112.34 596.8 98.44 608.7 98.44 608.7 88.44 596.8 88.44 596.8 74.64 622.5 74.64 622.5 86.54 632.5 86.54 632.5 52.74 622.5 52.74 622.5 64.64 596.8 64.64 596.8 50.84 608.7 50.84 608.7 40.74 596.8 40.74 596.8 26.94 622.5 26.94 622.5 38.84 632.5 38.84 632.5 26.94 658.3 26.94 658.3 40.74 646.4 40.74 646.4 62.74 656.4 62.74 656.4 50.84 670.2 50.84 670.2 62.74 680.2 62.74 680.2 40.74 668.3 40.74 668.3 26.94 694 26.94 694 38.84 704 38.84 704 26.94 729.8 26.94 729.8 40.74 717.9 40.74 717.9 50.84 729.8 50.84 729.8 64.64 704 64.64 704 52.74 694 52.74 694 74.64 706 74.64 706 88.44 694 88.44 694 110.44 704 110.44 704 98.44 717.9 98.44 717.9 110.44 727.9 110.44 727.9 88.44 716 88.44 716 74.64 753.6 74.64 753.6 88.44 741.7 88.44 741.7 110.44 751.7 110.44 751.7 98.44 765.6 98.44 765.6 110.44 775.6 110.44 775.6 88.44 763.6 88.44 763.6 74.64 775.6 74.64 775.6 52.74 765.6 52.74 765.6 64.64 739.8 64.64 739.8 50.84 751.7 50.84 751.7 40.74 739.8 40.74 739.8 26.94 765.6 26.94 765.6 38.84 775.6 38.84 775.6 27.94 777.5 27.94 777.5 40.74 763.6 40.74 763.6 28.84 741.7 28.84 741.7 38.84 753.6 38.84 753.6 52.74 741.7 52.74 741.7 62.74 763.6 62.74 763.6 50.84 777.5 50.84 777.5 76.54 765.6 76.54 765.6 86.54 777.5 86.54 777.5 112.34 763.6 112.34 763.6 100.34 753.6 100.34 753.6 112.34 739.8 112.34 739.8 86.54 751.7 86.54 751.7 76.54 717.9 76.54 717.9 86.54 729.8 86.54 729.8 112.34 716 112.34 716 100.34 706 100.34 706 112.34 692.1 112.34 692.1 86.54 704 86.54 704 76.54 692.1 76.54 692.1 50.84 706 50.84 706 62.74 727.9 62.74 727.9 52.74 716 52.74 716 38.84 727.9 38.84 727.9 28.84 706 28.84 706 40.74 692.1 40.74 692.1 28.84 670.2 28.84 670.2 38.84 682.1 38.84 682.1 64.64 668.3 64.64 668.3 52.74 658.3 52.74 658.3 64.64 644.4 64.64 644.4 38.84 656.4 38.84 656.4 28.84 634.4 28.84 634.4 40.74 620.6 40.74 620.6 28.84 598.7 28.84 598.7 38.84 610.6 38.84 610.6 52.74 598.7 52.74 598.7 62.74 620.6 62.74 620.6 50.84 634.4 50.84 634.4 88.44 620.6 88.44 620.6 76.54 598.7 76.54 598.7 86.54 610.6 86.54 610.6 100.34 598.7 100.34 598.7 110.44 620.6 110.44 620.6 98.44 634.4 98.44 634.4 110.44 656.4 110.44 656.4 100.34 644.4 100.34 644.4 74.64 658.3 74.64 658.3 86.54 668.3 86.54 668.3 74.64 682.1 74.64 682.1 100.34 670.2 100.34 670.2 110.44 682.1 110.44 682.1 124.24 670.2 124.24 670.2 134.24 682.1 134.24 682.1 159.94 668.3 159.94 668.3 148.04 658.3 148.04 658.3 159.94 644.4 159.94 644.4 134.24 656.4 134.24 656.4 124.24 634.4 124.24 634.4 136.14 620.6 136.14 620.6 124.24 598.7 124.24 598.7 134.24 610.6 134.24 610.6 148.04 598.7 148.04 598.7 158.04 620.6 158.04 620.6 146.14 634.4 146.14 634.4 183.84 620.6 183.84 620.6 171.94 598.7 171.94 598.7 181.94 610.6 181.94 610.6 195.74 598.7 195.74 598.7 205.74 620.6 205.74 620.6 193.84 634.4 193.84 634.4 205.74 656.4 205.74 656.4 195.74 644.4 195.74 644.4 169.94 658.3 169.94 658.3 181.94 668.3 181.94 668.3 169.94 682.1 169.94 682.1 195.74 670.2 195.74 670.2 205.74 692.1 205.74 692.1 193.84 706 193.84 706 205.74 727.9 205.74 727.9 195.74 716 195.74 716 181.94 727.9 181.94 727.9 171.94 706 171.94 706 183.84 692.1 183.84 692.1 158.04 704 158.04 704 148.04 692.1 148.04 692.1 122.34 706 122.34 706 134.24 716 134.24 716 122.34 729.8 122.34 729.8 148.04 717.9 148.04 717.9 158.04 751.7 158.04 751.7 148.04 739.8 148.04 739.8 122.34 753.6 122.34 753.6 134.24 763.6 134.24 763.6 122.34 777.5 122.34 777.5 148.04 765.6 148.04 765.6 158.04 777.5 158.04 777.5 183.84 763.6 183.84 763.6 171.94 741.7 171.94 741.7 181.94 753.6 181.94 753.6 195.74 741.7 195.74 741.7 205.74 763.6 205.74 763.6 193.84 777.5 193.84 777.5 219.54 765.6 219.54 765.6 229.54 777.5 229.54 777.5 255.34 763.6 255.34 763.6 243.44 753.6 243.44 753.6 255.34 739.8 255.34 739.8 229.54 751.7 229.54 751.7 219.54 729.8 219.54 729.8 231.54 716 231.54 716 219.54 694 219.54 694 229.54 706 229.54 706 243.44 694 243.44 694 253.44 716 253.44 716 241.54 729.8 241.54 729.8 279.14 716 279.14 716 267.24 694 267.24 694 277.24 706 277.24 706 291.14 694 291.14 694 301.14 716 301.14 716 289.14 729.8 289.14 729.8 301.14 751.7 301.14 751.7 291.14 739.8 291.14 739.8 265.34 753.6 265.34 753.6 277.24 763.6 277.24 763.6 265.34 777.5 265.34 777.5 291.14 765.6 291.14 765.6 301.14 777.5 301.14 777.5 326.84 763.6 326.84 763.6 314.94 741.7 314.94 741.7 324.94 753.6 324.94 753.6 338.74 741.7 338.74 741.7 348.74 763.6 348.74 763.6 336.84 777.5 336.84 777.5 362.64 765.6 362.64 765.6 372.64 777.5 372.64 777.5 398.34 763.6 398.34 763.6 386.44 753.6 386.44 753.6 398.34 739.8 398.34 739.8 372.64 751.7 372.64 751.7 362.64 717.9 362.64 717.9 372.64 729.8 372.64 729.8 398.34 716 398.34 716 386.44 706 386.44 706 398.34 692.1 398.34 692.1 372.64 704 372.64 704 362.64 692.1 362.64 692.1 336.84 706 336.84 706 348.74 727.9 348.74 727.9 338.74 716 338.74 716 324.94 727.9 324.94 727.9 314.94 706 314.94 706 326.84 692.1 326.84 692.1 314.94 682.1 314.94 682.1 326.84 668.3 326.84 668.3 314.94 646.4 314.94 646.4 324.94 658.3 324.94 658.3 338.74 646.4 338.74 646.4 348.74 668.3 348.74 668.3 336.84 682.1 336.84 682.1 362.64 670.2 362.64 670.2 372.64 682.1 372.64 682.1 398.34 668.3 398.34 668.3 386.44 658.3 386.44 658.3 398.34 644.4 398.34 644.4 372.64 656.4 372.64 656.4 362.64 622.5 362.64 622.5 372.64 634.4 372.64 634.4 398.34 620.6 398.34 620.6 386.44 610.6 386.44 610.6 398.34 596.8 398.34 596.8 372.64 608.7 372.64 608.7 362.64 596.8 362.64 596.8 336.84 610.6 336.84 610.6 348.74 632.5 348.74 632.5 338.74 620.6 338.74 620.6 324.94 632.5 324.94 632.5 314.94 610.6 314.94 610.6 326.84 596.8 326.84 596.8 301.14 608.7 301.14 608.7 291.14 596.8 291.14 596.8 265.34 610.6 265.34 610.6 277.24 620.6 277.24 620.6 265.34 634.4 265.34 634.4 291.14 622.5 291.14 622.5 301.14 644.4 301.14 644.4 289.14 658.3 289.14 658.3 301.14 680.2 301.14 680.2 291.14 668.3 291.14 668.3 277.24 680.2 277.24 680.2 267.24 658.3 267.24 658.3 279.14 644.4 279.14 644.4 241.54 658.3 241.54 658.3 253.44 680.2 253.44 680.2 243.44 668.3 243.44 668.3 229.54 680.2 229.54 680.2 219.54 658.3 219.54 658.3 231.54 644.4 231.54 644.4 219.54 622.5 219.54 622.5 229.54 634.4 229.54 634.4 255.34 620.6 255.34 620.6 243.44 610.6 243.44 610.6 255.34 596.8 255.34 596.8 229.54 608.7 229.54 608.7 219.54 574.8 219.54 574.8 229.54 586.8 229.54 586.8 255.34 572.9 255.34 572.9 243.44 562.9 243.44 562.9 255.34 549.1 255.34 549.1 229.54 561 229.54 561 219.54 539.1 219.54 539.1 231.54 525.3 231.54 525.3 219.54 503.3 219.54 503.3 229.54 515.2 229.54 515.2 243.44 503.3 243.44 503.3 253.44 525.3 253.44 525.3 241.54 539.1 241.54 539.1 279.14 525.3 279.14 525.3 267.24 503.3 267.24 503.3 277.24 515.2 277.24 515.2 291.14 503.3 291.14 503.3 301.14 525.3 301.14 525.3 289.14 539.1 289.14 539.1 301.14 561 301.14 561 291.14 549.1 291.14 549.1 265.34 562.9 265.34 562.9 277.24 572.9 277.24 572.9 265.34 586.8 265.34 586.8 291.14 574.8 291.14 574.8 301.14 586.8 301.14 586.8 326.84 572.9 326.84 572.9 314.94 551 314.94 551 324.94 562.9 324.94 562.9 338.74 551 338.74 551 348.74 572.9 348.74 572.9 336.84 586.8 336.84 586.8 362.64 574.8 362.64 574.8 372.64 586.8 372.64 586.8 398.34 572.9 398.34 572.9 386.44 562.9 386.44 562.9 398.34 549.1 398.34 549.1 372.64 561 372.64 561 362.64 527.2 362.64 527.2 372.64 539.1 372.64 539.1 398.34 525.3 398.34 525.3 386.44 515.2 386.44 515.2 398.34 501.4 398.34 501.4 372.64 513.3 372.64 513.3 362.64 501.4 362.64 501.4 336.84 515.2 336.84 515.2 348.74 537.2 348.74 537.2 338.74 525.3 338.74 525.3 324.94 537.2 324.94 537.2 314.94 515.2 314.94 515.2 326.84 501.4 326.84 501.4 314.94 491.4 314.94 491.4 326.84 477.6 326.84 477.6 314.94 455.6 314.94 455.6 324.94 467.6 324.94 467.6 338.74 455.6 338.74 455.6 348.74 477.6 348.74 477.6 336.84 491.4 336.84 491.4 362.64 479.5 362.64 479.5 372.64 491.4 372.64 491.4 398.34 477.6 398.34 477.6 386.44 467.6 386.44 467.6 398.34 453.7 398.34 453.7 372.64 465.7 372.64 465.7 362.64 431.8 362.64 431.8 372.64 443.7 372.64 443.7 398.34 429.9 398.34 429.9 386.44 419.9 386.44 419.9 398.34 406.1 398.34 406.1 372.64 418 372.64 418 362.64 406.1 362.64 406.1 336.84 419.9 336.84 419.9 348.74 441.8 348.74 441.8 338.74 429.9 338.74 429.9 324.94 441.8 324.94 441.8 314.94 419.9 314.94 419.9 326.84 406.1 326.84 406.1 301.14 418 301.14 418 291.14 406.1 291.14 406.1 265.34 419.9 265.34 419.9 277.24 429.9 277.24 429.9 265.34 443.7 265.34 443.7 291.14 431.8 291.14 431.8 301.14 453.7 301.14 453.7 289.14 467.6 289.14 467.6 301.14 489.5 301.14 489.5 291.14 477.6 291.14 477.6 277.24 489.5 277.24 489.5 267.24 467.6 267.24 467.6 279.14 453.7 279.14 453.7 241.54 467.6 241.54 467.6 253.44 489.5 253.44 489.5 243.44 477.6 243.44 477.6 229.54 489.5 229.54 489.5 219.54 467.6 219.54 467.6 231.54 453.7 231.54 453.7 219.54 431.8 219.54 431.8 229.54 443.7 229.54 443.7 255.34 429.9 255.34 429.9 243.44 419.9 243.44 419.9 255.34 406.1 255.34 406.1 229.54 418 229.54 418 219.54 406.1 219.54 406.1 193.84 419.9 193.84 419.9 205.74 441.8 205.74 441.8 195.74 429.9 195.74 429.9 181.94 441.8 181.94 441.8 171.94 419.9 171.94 419.9 183.84 406.1 183.84 406.1 158.04 418 158.04 418 148.04 406.1 148.04 406.1 122.34 419.9 122.34 419.9 134.24 429.9 134.24 429.9 122.34 443.7 122.34 443.7 148.04 431.8 148.04 431.8 158.04 465.7 158.04 465.7 148.04 453.7 148.04 453.7 122.34 467.6 122.34 467.6 134.24 477.6 134.24 477.6 122.34 491.4 122.34 491.4 148.04 479.5 148.04 479.5 158.04 491.4 158.04 491.4 183.84 477.6 183.84 477.6 171.94 455.6 171.94 455.6 181.94 467.6 181.94 467.6 195.74 455.6 195.74 455.6 205.74 477.6 205.74 477.6 193.84 491.4 193.84 491.4 205.74 513.3 205.74 513.3 195.74 501.4 195.74 501.4 169.94 515.2 169.94 515.2 181.94 525.3 181.94 525.3 169.94 539.1 169.94 539.1 195.74 527.2 195.74 527.2 205.74 549.1 205.74 549.1 193.84 562.9 193.84 562.9 205.74 584.9 205.74 584.9 195.74 572.9 195.74 572.9 181.94 584.9 181.94 584.9 171.94 562.9 171.94 562.9 183.84 549.1 183.84 549.1 146.14 562.9 146.14 562.9 158.04 584.9 158.04 584.9 148.04 572.9 148.04 572.9 134.24 584.9 134.24 584.9 124.24 562.9 124.24 562.9 136.14 549.1 136.14 549.1 124.24 527.2 124.24 527.2 134.24 539.1 134.24 539.1 159.94 525.3 159.94 525.3 148.04 515.2 148.04 515.2 159.94 501.4 159.94 501.4 134.24 513.3 134.24 513.3 124.24 501.4 124.24 501.4 110.44 513.3 110.44 513.3 100.34 501.4 100.34 501.4 74.64 515.2 74.64 515.2 86.54 525.3 86.54 525.3 74.64 539.1 74.64 539.1 100.34 527.2 100.34 527.2 110.44 549.1 110.44 549.1 98.44 562.9 98.44 562.9 110.44 584.9 110.44 584.9 100.34 572.9 100.34 572.9 86.54 584.9 86.54 584.9 76.54 562.9 76.54 562.9 88.44 549.1 88.44 549.1 50.84 562.9 50.84 562.9 62.74 584.9 62.74 584.9 52.74 572.9 52.74 572.9 38.84 584.9 38.84 584.9 28.84 562.9 28.84 562.9 40.74 549.1 40.74 549.1 28.84 527.2 28.84 527.2 38.84 539.1 38.84 539.1 64.64 525.3 64.64 525.3 52.74 515.2 52.74 515.2 64.64 501.4 64.64 501.4 38.84 513.3 38.84 513.3 28.84 491.4 28.84 491.4 40.74 477.6 40.74 477.6 28.84 455.6 28.84 455.6 38.84 467.6 38.84 467.6 52.74 455.6 52.74 455.6 62.74 477.6 62.74 477.6 50.84 491.4 50.84 491.4 76.54 479.5 76.54 479.5 86.54 491.4 86.54 491.4 112.34 477.6 112.34 477.6 100.34 467.6 100.34 467.6 112.34 453.7 112.34 453.7 86.54 465.7 86.54 465.7 76.54 431.8 76.54 431.8 86.54 443.7 86.54 443.7 112.34 429.9 112.34 429.9 100.34 419.9 100.34 419.9 112.34 406.1 112.34 406.1 86.54 418 86.54 418 76.54 406.1 76.54 406.1 50.84 419.9 50.84 419.9 62.74 441.8 62.74 441.8 52.74 429.9 52.74 429.9 38.84 441.8 38.84 441.8 28.84 419.9 28.84 419.9 40.74 406.1 40.74 406.1 28.84 384.1 28.84 384.1 38.84 396.1 38.84 396.1 64.64 382.2 64.64 382.2 52.74 372.2 52.74 372.2 64.64 358.4 64.64 358.4 38.84 370.3 38.84 370.3 28.84 348.4 28.84 348.4 40.74 334.5 40.74 334.5 28.84 312.6 28.84 312.6 38.84 324.5 38.84 324.5 52.74 312.6 52.74 312.6 62.74 334.5 62.74 334.5 50.84 348.4 50.84 348.4 88.44 334.5 88.44 334.5 76.54 312.6 76.54 312.6 86.54 324.5 86.54 324.5 100.34 312.6 100.34 312.6 110.44 334.5 110.44 334.5 98.44 348.4 98.44 348.4 110.44 370.3 110.44 370.3 100.34 358.4 100.34 358.4 74.64 372.2 74.64 372.2 86.54 382.2 86.54 382.2 74.64 396.1 74.64 396.1 100.34 384.1 100.34 384.1 110.44 396.1 110.44 396.1 136.14 382.2 136.14 382.2 124.24 360.3 124.24 360.3 134.24 372.2 134.24 372.2 148.04 360.3 148.04 360.3 158.04 382.2 158.04 382.2 146.14 396.1 146.14 396.1 171.94 384.1 171.94 384.1 181.94 396.1 181.94 396.1 207.64 382.2 207.64 382.2 195.74 372.2 195.74 372.2 207.64 358.4 207.64 358.4 181.94 370.3 181.94 370.3 171.94 336.5 171.94 336.5 181.94 348.4 181.94 348.4 207.64 334.5 207.64 334.5 195.74 324.5 195.74 324.5 207.64 310.7 207.64 310.7 181.94 322.6 181.94 322.6 171.94 310.7 171.94 310.7 146.14 324.5 146.14 324.5 158.04 346.5 158.04 346.5 148.04 334.5 148.04 334.5 134.24 346.5 134.24 346.5 124.24 324.5 124.24 324.5 136.14 310.7 136.14 310.7 124.24 300.7 124.24 300.7 136.14 286.9 136.14 286.9 124.24 264.9 124.24 264.9 134.24 276.9 134.24 276.9 148.04 264.9 148.04 264.9 158.04 286.9 158.04 286.9 146.14 300.7 146.14 300.7 171.94 288.8 171.94 288.8 181.94 300.7 181.94 300.7 207.64 286.9 207.64 286.9 195.74 276.9 195.74 276.9 207.64 263 207.64 263 181.94 274.9 181.94 274.9 171.94 241.1 171.94 241.1 181.94 253 181.94 253 207.64 239.2 207.64 239.2 195.74 229.2 195.74 229.2 207.64 215.4 207.64 215.4 181.94 227.3 181.94 227.3 171.94 215.4 171.94 215.4 146.14 229.2 146.14 229.2 158.04 251.1 158.04 251.1 148.04 239.2 148.04 239.2 134.24 251.1 134.24 251.1 124.24 229.2 124.24 229.2 136.14 215.4 136.14 215.4 110.44 227.3 110.44 227.3 100.34 215.4 100.34 215.4 74.64 229.2 74.64 229.2 86.54 239.2 86.54 239.2 74.64 253 74.64 253 100.34 241.1 100.34 241.1 110.44 263 110.44 263 98.44 276.9 98.44 276.9 110.44 298.8 110.44 298.8 100.34 286.9 100.34 286.9 86.54 298.8 86.54 298.8 76.54 276.9 76.54 276.9 88.44 263 88.44 263 50.84 276.9 50.84 276.9 62.74 298.8 62.74 298.8 52.74 286.9 52.74 286.9 38.84 298.8 38.84 298.8 28.84 276.9 28.84 276.9 40.74 263 40.74 263 28.84 241.1 28.84 241.1 38.84 253 38.84 253 64.64 239.2 64.64 239.2 52.74 229.2 52.74 229.2 64.64 215.4 64.64 215.4 38.84 227.3 38.84 227.3 28.84 205.3 28.84 205.3 40.74 191.5 40.74 191.5 28.84 169.6 28.84 169.6 38.84 181.5 38.84 181.5 52.74 169.6 52.74 169.6 62.74 191.5 62.74 191.5 50.84 205.3 50.84 205.3 76.54 193.4 76.54 193.4 86.54 205.3 86.54 205.3 112.34 191.5 112.34 191.5 100.34 181.5 100.34 181.5 112.34 167.7 112.34 167.7 86.54 179.6 86.54 179.6 76.54 145.7 76.54 145.7 86.54 157.7 86.54 157.7 112.34 143.8 112.34 143.8 100.34 133.8 100.34 133.8 112.34 120 112.34 120 86.54 131.9 86.54 131.9 76.54 120 76.54 120 50.84 133.8 50.84 133.8 62.74 155.8 62.74 155.8 52.74 143.8 52.74 143.8 38.84 155.8 38.84 155.8 28.84 133.8 28.84 133.8 40.74 120 40.74 120 28.84 98.1 28.84 98.1 38.84 110 38.84 110 64.64 96.2 64.64 96.2 52.74 86.2 52.74 86.2 64.64 72.3 64.64 72.3 38.84 84.2 38.84 84.2 28.84 62.3 28.84 62.3 40.74 48.5 40.74 48.5 28.84 26.6 28.84 26.6 38.84 38.5 38.84 38.5 52.74 26.6 52.74 26.6 62.74 48.5 62.74 48.5 50.84 62.3 50.84 62.3 88.44 48.5 88.44 48.5 76.54 26.6 76.54 26.6 86.54 38.5 86.54 38.5 100.34 26.6 100.34 26.6 110.44 48.5 110.44 48.5 98.44 62.3 98.44 62.3 110.44 84.2 110.44 84.2 100.34 72.3 100.34 72.3 74.64 86.2 74.64 86.2 86.54 96.2 86.54 96.2 74.64 110 74.64 110 100.34 98.1 100.34 98.1 110.44 110 110.44 110 124.24 98.1 124.24 98.1 134.24 110 134.24 110 159.94 96.2 159.94 96.2 148.04 86.2 148.04 86.2 159.94 72.3 159.94 72.3 134.24 84.2 134.24 84.2 124.24 62.3 124.24 62.3 136.14 48.5 136.14 48.5 124.24 26.6 124.24 26.6 134.24 38.5 134.24 38.5 148.04 26.6 148.04 26.6 158.04 48.5 158.04 48.5 146.14 62.3 146.14 62.3 183.84 48.5 183.84 48.5 171.94 26.6 171.94 26.6 181.94 38.5 181.94 38.5 195.74 26.6 195.74 26.6 205.74 48.5 205.74 48.5 193.84 62.3 193.84 62.3 205.74 84.2 205.74 84.2 195.74 72.3 195.74 72.3 169.94 86.2 169.94 86.2 181.94 96.2 181.94 96.2 169.94 110 169.94 110 195.74 98.1 195.74 98.1 205.74 120 205.74 120 193.84 133.8 193.84 133.8 205.74 155.8 205.74 155.8 195.74 143.8 195.74 143.8 181.94 155.8 181.94 155.8 171.94 133.8 171.94 133.8 183.84 120 183.84 120 158.04 131.9 158.04 131.9 148.04 120 148.04 120 122.34 133.8 122.34 133.8 134.24 143.8 134.24 143.8 122.34 157.7 122.34 157.7 148.04 145.7 148.04 145.7 158.04 179.6 158.04 179.6 148.04 167.7 148.04 167.7 122.34 181.5 122.34 181.5 134.24 191.5 134.24 191.5 122.34 205.3 122.34 205.3 148.04 193.4 148.04 193.4 158.04 205.3 158.04 205.3 183.84 191.5 183.84 191.5 171.94 169.6 171.94 169.6 181.94 181.5 181.94 181.5 195.74 169.6 195.74 169.6 205.74 191.5 205.74 191.5 193.84 205.3 193.84 205.3 231.54 191.5 231.54 191.5 219.54 169.6 219.54 169.6 229.54 181.5 229.54 181.5 243.44 169.6 243.44 169.6 253.44 191.5 253.44 191.5 241.54 205.3 241.54 205.3 267.24 193.4 267.24 193.4 277.24 205.3 277.24 205.3 303.04 191.5 303.04 191.5 291.14 181.5 291.14 181.5 303.04 167.7 303.04 167.7 277.24 179.6 277.24 179.6 267.24 145.7 267.24 145.7 277.24 157.7 277.24 157.7 303.04 143.8 303.04 143.8 291.14 133.8 291.14 133.8 303.04 120 303.04 120 277.24 131.9 277.24 131.9 267.24 120 267.24 120 241.54 133.8 241.54 133.8 253.44 155.8 253.44 155.8 243.44 143.8 243.44 143.8 229.54 155.8 229.54 155.8 219.54 133.8 219.54 133.8 231.54 120 231.54 120 219.54 98.1 219.54 98.1 229.54 110 229.54 110 255.34 96.2 255.34 96.2 243.44 86.2 243.44 86.2 255.34 72.3 255.34 72.3 229.54 84.2 229.54 84.2 219.54 62.3 219.54 62.3 231.54 48.5 231.54 48.5 219.54 26.6 219.54 26.6 229.54 38.5 229.54 38.5 243.44 26.6 243.44 26.6 253.44 48.5 253.44 48.5 241.54 62.3 241.54 62.3 279.14 48.5 279.14 48.5 267.24 26.6 267.24 26.6 277.24 38.5 277.24 38.5 291.14 26.6 291.14 26.6 301.14 48.5 301.14 48.5 289.14 62.3 289.14 62.3 301.14 84.2 301.14 84.2 291.14 72.3 291.14 72.3 265.34 86.2 265.34 86.2 277.24 96.2 277.24 96.2 265.34 110 265.34 110 291.14 98.1 291.14 98.1 301.14 110 301.14 110 314.94 98.1 314.94 98.1 324.94 110 324.94 110 350.64 96.2 350.64 96.2 338.74 86.2 338.74 86.2 350.64 72.3 350.64 72.3 324.94 84.2 324.94 84.2 314.94 62.3 314.94 62.3 326.84 48.5 326.84 48.5 314.94 26.6 314.94 26.6 324.94 38.5 324.94 38.5 338.74 26.6 338.74 26.6 348.74 48.5 348.74 48.5 336.84 62.3 336.84 62.3 374.54 48.5 374.54 48.5 362.64 26.6 362.64 26.6 372.64 38.5 372.64 38.5 386.44 26.6 386.44 26.6 396.44 48.5 396.44 48.5 384.54 62.3 384.54 62.3 396.44 84.2 396.44 84.2 386.44 72.3 386.44 72.3 360.74 86.2 360.74 86.2 372.64 96.2 372.64 96.2 360.74 110 360.74 110 386.44 98.1 386.44 98.1 396.44 120 396.44 120 384.54 133.8 384.54 133.8 396.44 155.8 396.44 155.8 386.44 143.8 386.44 143.8 372.64 155.8 372.64 155.8 362.64 133.8 362.64 133.8 374.54 120 374.54 120 348.74 131.9 348.74 131.9 338.74 120 338.74 120 313.04 133.8 313.04 133.8 324.94 143.8 324.94 143.8 313.04 157.7 313.04 157.7 338.74 145.7 338.74 145.7 348.74 179.6 348.74 179.6 338.74 167.7 338.74 167.7 313.04 181.5 313.04 181.5 324.94 191.5 324.94 191.5 313.04 205.3 313.04 205.3 338.74 193.4 338.74 193.4 348.74 205.3 348.74 205.3 374.54 191.5 374.54 191.5 362.64 169.6 362.64 169.6 372.64 181.5 372.64 181.5 386.44 169.6 386.44 169.6 396.44 191.5 396.44 191.5 384.54 205.3 384.54 205.3 396.44 227.3 396.44 227.3 386.44 215.4 386.44 215.4 360.74 229.2 360.74 229.2 372.64 239.2 372.64 239.2 360.74 253 360.74 253 386.44 241.1 386.44 241.1 396.44 263 396.44 263 384.54 276.9 384.54 276.9 396.44 298.8 396.44 298.8 386.44 286.9 386.44 286.9 372.64 298.8 372.64 298.8 362.64 276.9 362.64 276.9 374.54 263 374.54 263 336.84 276.9 336.84 276.9 348.74 298.8 348.74 298.8 338.74 286.9 338.74 286.9 324.94 298.8 324.94 298.8 314.94 276.9 314.94 276.9 326.84 263 326.84 263 314.94 241.1 314.94 241.1 324.94 253 324.94 253 350.64 239.2 350.64 239.2 338.74 229.2 338.74 229.2 350.64 215.4 350.64 215.4 324.94 227.3 324.94 227.3 314.94 215.4 314.94 215.4 289.14 229.2 289.14 229.2 301.14 251.1 301.14 251.1 291.14 239.2 291.14 239.2 277.24 251.1 277.24 251.1 267.24 229.2 267.24 229.2 279.14 215.4 279.14 215.4 253.44 227.3 253.44 227.3 243.44 215.4 243.44 215.4 217.64 229.2 217.64 229.2 229.54 239.2 229.54 239.2 217.64 253 217.64 253 243.44 241.1 243.44 241.1 253.44 274.9 253.44 274.9 243.44 263 243.44 263 217.64 276.9 217.64 276.9 229.54 286.9 229.54 286.9 217.64 300.7 217.64 300.7 243.44 288.8 243.44 288.8 253.44 300.7 253.44 300.7 279.14 286.9 279.14 286.9 267.24 264.9 267.24 264.9 277.24 276.9 277.24 276.9 291.14 264.9 291.14 264.9 301.14 286.9 301.14 286.9 289.14 300.7 289.14 300.7 301.14 310.7 301.14 310.7 289.14 324.5 289.14 324.5 301.14 346.5 301.14 346.5 291.14 334.5 291.14 334.5 277.24 346.5 277.24 346.5 267.24 324.5 267.24 324.5 279.14 310.7 279.14 310.7 253.44 322.6 253.44 322.6 243.44 310.7 243.44 310.7 217.64 324.5 217.64 324.5 229.54 334.5 229.54 334.5 217.64 348.4 217.64 348.4 243.44 336.5 243.44 336.5 253.44 370.3 253.44 370.3 243.44 358.4 243.44 358.4 217.64 372.2 217.64 372.2 229.54 382.2 229.54 382.2 217.64 396.1 217.64 396.1 243.44 384.1 243.44 384.1 253.44 396.1 253.44 396.1 279.14 382.2 279.14 382.2 267.24 360.3 267.24 360.3 277.24 372.2 277.24 372.2 291.14 360.3 291.14 360.3 301.14 382.2 301.14 382.2 289.14 396.1 289.14 396.1 314.94 384.1 314.94 384.1 324.94 396.1 324.94 396.1 350.64 382.2 350.64 382.2 338.74 372.2 338.74 372.2 350.64 358.4 350.64 358.4 324.94 370.3 324.94 370.3 314.94 348.4 314.94 348.4 326.84 334.5 326.84 334.5 314.94 312.6 314.94 312.6 324.94 324.5 324.94 324.5 338.74 312.6 338.74 312.6 348.74 334.5 348.74 334.5 336.84 348.4 336.84 348.4 374.54 334.5 374.54 334.5 362.64 312.6 362.64 312.6 372.64 324.5 372.64 324.5 386.44 312.6 386.44 312.6 396.44 334.5 396.44 334.5 384.54 348.4 384.54 348.4 396.44 370.3 396.44 370.3 386.44 358.4 386.44 358.4 360.74 372.2 360.74 372.2 372.64 382.2 372.64 382.2 360.74 396.1 360.74 396.1 386.44 384.1 386.44 384.1 396.44 396.1 396.44 396.1 410.24 384.1 410.24 384.1 420.34 396.1 420.34 396.1 446.04 382.2 446.04 382.2 434.14 372.2 434.14 372.2 446.04 358.4 446.04 358.4 420.34 370.3 420.34 370.3 410.24 348.4 410.24 348.4 422.24 334.5 422.24 334.5 410.24 312.6 410.24 312.6 420.34 324.5 420.34 324.5 434.14 312.6 434.14 312.6 444.14 334.5 444.14 334.5 432.24 348.4 432.24"/><line class="c" x1="162.41" y1="304.26" x2="162.41" y2="258.98"/><line class="c" x1="632.6" y1="304.06" x2="632.6" y2="258.4"/><line class="c" x1="347.18" y1="304.05" x2="347.18" y2="270.11"/><line class="c" x1="335.17" y1="304.26" x2="335.17" y2="281.23"/><line class="c" x1="359.2" y1="304.65" x2="359.2" y2="258.98"/><line class="c" x1="186.44" y1="281.24" x2="335.17" y2="281.24"/><line class="c" x1="174.43" y1="270.11" x2="347.18" y2="270.11"/><line class="c" x1="162.41" y1="258.98" x2="359.2" y2="258.98"/><line class="c" x1="174.43" y1="304.05" x2="174.43" y2="270.11"/><line class="c" x1="186.44" y1="304.65" x2="186.44" y2="281.81"/><line class="c" x1="620.59" y1="303.47" x2="620.59" y2="269.53"/><line class="c" x1="608.57" y1="303.68" x2="608.57" y2="280.65"/><line class="c" x1="459.85" y1="280.66" x2="608.57" y2="280.66"/><line class="c" x1="447.83" y1="269.53" x2="620.59" y2="269.53"/><line class="c" x1="435.82" y1="258.4" x2="632.6" y2="258.4"/><line class="c" x1="447.83" y1="303.47" x2="447.83" y2="269.53"/><line class="c" x1="435.82" y1="303.68" x2="435.82" y2="258.4"/><line class="c" x1="459.85" y1="304.06" x2="459.85" y2="281.23"/><rect class="d" x="91.29" y="301.67" width="166.27" height="269.8" rx="21.82"/><rect class="e" x="308.11" y="143.66" width="178.8" height="98.34" rx="21.82"/><rect class="e" x="296.32" y="143.66" width="205.08" height="98.34" rx="21.82"/><path d="M322.37,169.93v17.94h-3.95V169.93Z"/><path d="M328.84,175l.44,2.55.32.33v10h-3.85V175Zm5.85-.34q3.65,0,3.64,3.56v9.62h-3.85v-8.42a1.69,1.69,0,0,0-.31-1.18,1.42,1.42,0,0,0-1.06-.33,4.89,4.89,0,0,0-1.72.33,18,18,0,0,0-2.18,1l-.19-2.16a11.39,11.39,0,0,1,2.83-1.8A7.21,7.21,0,0,1,334.69,174.69Z"/><path d="M344.49,175l.37,2.34.36.39v8.34l-.13.32q.07.78.12,1.62c0,.56,0,1.12,0,1.68v3.09h-3.85V175Zm5.33-.31a3.69,3.69,0,0,1,3.46,1.76,10,10,0,0,1,1,5.07,12.26,12.26,0,0,1-.53,4,3.58,3.58,0,0,1-1.61,2,5.49,5.49,0,0,1-2.69.59,8.76,8.76,0,0,1-2.63-.39,5.58,5.58,0,0,1-2.21-1.3l.26-1.72c.57.18,1.1.33,1.57.46a6.24,6.24,0,0,0,1.63.19,2.62,2.62,0,0,0,1.32-.28,1.75,1.75,0,0,0,.72-1.13,10.3,10.3,0,0,0,.22-2.46,10.66,10.66,0,0,0-.21-2.43,2,2,0,0,0-.67-1.17,2.1,2.1,0,0,0-1.23-.33,3.56,3.56,0,0,0-1.53.33,11.7,11.7,0,0,0-1.59.92l-.49-1.77a5.34,5.34,0,0,1,1.34-1.24,7,7,0,0,1,1.81-.86A6.6,6.6,0,0,1,349.82,174.72Z"/><path d="M360.74,175v8.45a1.54,1.54,0,0,0,.35,1.14,1.6,1.6,0,0,0,1.14.34,4.53,4.53,0,0,0,1.6-.3,15.23,15.23,0,0,0,2-.95l.31,2.11a11.21,11.21,0,0,1-2.76,1.82,6.79,6.79,0,0,1-2.78.6q-3.66,0-3.66-3.59V175Zm8.51,0v12.84H366.2l-.44-2.52-.36-.36V175Z"/><path d="M381,175v2.52h-9.7v-2.39l2.5-.13Zm-3.59-3.56v12.29a1.32,1.32,0,0,0,.33,1,1.59,1.59,0,0,0,1.07.29h1.67l.41,2.6a7.31,7.31,0,0,1-1.14.28q-.67.12-1.35.18c-.45,0-.83.06-1.15.06a3.76,3.76,0,0,1-2.71-.93,3.48,3.48,0,0,1-1-2.63l0-13.15Z"/><path d="M395.32,169.93l-10.21,19.84H382l10.22-19.84Z"/><path d="M404.42,169.57A12.58,12.58,0,0,1,408,170a5,5,0,0,1,2.38,1.51,6.66,6.66,0,0,1,1.31,2.86,24.42,24.42,0,0,1,0,9,6.61,6.61,0,0,1-1.31,2.86,4.87,4.87,0,0,1-2.38,1.51,14.43,14.43,0,0,1-7.23,0,5,5,0,0,1-2.39-1.51,6.51,6.51,0,0,1-1.33-2.86,25,25,0,0,1,0-9,6.56,6.56,0,0,1,1.33-2.86,5.1,5.1,0,0,1,2.39-1.51A12.56,12.56,0,0,1,404.42,169.57Zm0,3.14a3.68,3.68,0,0,0-2.14.55,3.06,3.06,0,0,0-1.09,1.89,21.47,21.47,0,0,0,0,7.5,3.06,3.06,0,0,0,1.09,1.89,3.61,3.61,0,0,0,2.14.55,3.54,3.54,0,0,0,2.12-.55,3.12,3.12,0,0,0,1.1-1.89,22.13,22.13,0,0,0,0-7.5,3.12,3.12,0,0,0-1.1-1.89A3.61,3.61,0,0,0,404.42,172.71Z"/><path d="M418.7,175v8.45a1.54,1.54,0,0,0,.35,1.14,1.56,1.56,0,0,0,1.13.34,4.49,4.49,0,0,0,1.6-.3,14.62,14.62,0,0,0,2-.95l.31,2.11a11.17,11.17,0,0,1-2.75,1.82,6.79,6.79,0,0,1-2.78.6q-3.67,0-3.67-3.59V175Zm8.5,0v12.84h-3l-.44-2.52-.37-.36V175Z"/><path d="M439,175v2.52h-9.7v-2.39l2.5-.13Zm-3.59-3.56v12.29a1.32,1.32,0,0,0,.33,1,1.64,1.64,0,0,0,1.08.29h1.66l.42,2.6a7.46,7.46,0,0,1-1.15.28q-.68.12-1.35.18t-1.14.06a3.79,3.79,0,0,1-2.72-.93,3.48,3.48,0,0,1-1-2.63l0-13.15Z"/><path d="M444.13,175l.36,2.34.36.39v8.34l-.13.32q.09.78.12,1.62c0,.56,0,1.12,0,1.68v3.09H441V175Zm5.33-.31a3.69,3.69,0,0,1,3.45,1.76,10,10,0,0,1,1,5.07,12,12,0,0,1-.53,4,3.54,3.54,0,0,1-1.61,2,5.49,5.49,0,0,1-2.69.59,8.76,8.76,0,0,1-2.63-.39,5.58,5.58,0,0,1-2.21-1.3l.26-1.72c.57.18,1.1.33,1.58.46a6.11,6.11,0,0,0,1.62.19,2.68,2.68,0,0,0,1.33-.28,1.74,1.74,0,0,0,.71-1.13,10.3,10.3,0,0,0,.22-2.46,10.66,10.66,0,0,0-.21-2.43,1.9,1.9,0,0,0-.67-1.17,2.07,2.07,0,0,0-1.22-.33,3.58,3.58,0,0,0-1.54.33,11.65,11.65,0,0,0-1.58.92l-.5-1.77a5.52,5.52,0,0,1,1.34-1.24,7,7,0,0,1,1.81-.86A6.62,6.62,0,0,1,449.46,174.72Z"/><path d="M460.38,175v8.45a1.5,1.5,0,0,0,.35,1.14,1.56,1.56,0,0,0,1.13.34,4.53,4.53,0,0,0,1.6-.3,14.62,14.62,0,0,0,2-.95l.31,2.11a11.17,11.17,0,0,1-2.75,1.82,6.83,6.83,0,0,1-2.79.6q-3.66,0-3.66-3.59V175Zm8.5,0v12.84h-3l-.45-2.52L465,185V175Z"/><path d="M480.63,175v2.52h-9.7v-2.39l2.5-.13ZM477,171.47v12.29a1.32,1.32,0,0,0,.33,1,1.61,1.61,0,0,0,1.08.29h1.66l.42,2.6a7.76,7.76,0,0,1-1.15.28q-.67.12-1.35.18t-1.14.06a3.77,3.77,0,0,1-2.72-.93,3.48,3.48,0,0,1-1-2.63l0-13.15Z"/><path d="M337.62,205.89c.46,0,1,0,1.53.07a14.11,14.11,0,0,1,1.68.23,7.2,7.2,0,0,1,1.55.48l-.42,2.42-2-.05-1.7,0a4.47,4.47,0,0,0-1.85.31,1.89,1.89,0,0,0-1,1.11,6.4,6.4,0,0,0-.3,2.19,6.64,6.64,0,0,0,.3,2.24,1.88,1.88,0,0,0,1,1.12,4.47,4.47,0,0,0,1.85.31l1.06,0,1.41-.06c.5,0,1-.07,1.48-.14l.36,2.44a9.34,9.34,0,0,1-2.36.68,18.12,18.12,0,0,1-2.63.2,9.18,9.18,0,0,1-3.81-.66,4,4,0,0,1-2-2.14,10.53,10.53,0,0,1-.62-4,10.29,10.29,0,0,1,.63-4,4,4,0,0,1,2.07-2.13A9.34,9.34,0,0,1,337.62,205.89Z"/><path d="M350.82,205.89a9.51,9.51,0,0,1,3.88.66,4,4,0,0,1,2.09,2.15,10.15,10.15,0,0,1,.64,4,10,10,0,0,1-.64,3.92,3.93,3.93,0,0,1-2.09,2.13,11.85,11.85,0,0,1-7.74,0,4,4,0,0,1-2.12-2.13,9.94,9.94,0,0,1-.65-3.92,10.13,10.13,0,0,1,.65-4,4.12,4.12,0,0,1,2.12-2.15A9.53,9.53,0,0,1,350.82,205.89Zm0,2.81a3.06,3.06,0,0,0-1.56.34,1.84,1.84,0,0,0-.8,1.19,9.6,9.6,0,0,0-.24,2.45,9.36,9.36,0,0,0,.24,2.41,1.81,1.81,0,0,0,.8,1.19,3.29,3.29,0,0,0,1.56.32,3.24,3.24,0,0,0,1.56-.32,1.82,1.82,0,0,0,.81-1.19,9.43,9.43,0,0,0,.23-2.41,9.68,9.68,0,0,0-.23-2.45,1.85,1.85,0,0,0-.81-1.19A3,3,0,0,0,350.82,208.7Z"/><path d="M363.15,206.23l.44,2.55.31.33v10h-3.85V206.23Zm5.85-.34c2.42,0,3.64,1.19,3.64,3.56v9.62h-3.85v-8.42a1.69,1.69,0,0,0-.31-1.18,1.43,1.43,0,0,0-1.07-.33,4.88,4.88,0,0,0-1.71.33,18.73,18.73,0,0,0-2.19,1l-.18-2.16a11.53,11.53,0,0,1,2.82-1.8A7.22,7.22,0,0,1,369,205.89Z"/><path d="M384.29,206.23v2.52h-9.7v-2.39l2.49-.13Zm-3.59-3.56V215a1.36,1.36,0,0,0,.32,1,1.64,1.64,0,0,0,1.08.29h1.67l.41,2.6a7.31,7.31,0,0,1-1.14.28q-.68.12-1.35.18c-.45,0-.84.06-1.15.06a3.76,3.76,0,0,1-2.71-.93,3.45,3.45,0,0,1-1-2.63l0-13.15Z"/><path d="M389.36,206.23l.46,2.55.37.33v10h-3.85V206.23Zm6.26-.34-.36,3.56h-1.07a7.61,7.61,0,0,0-1.9.26c-.65.18-1.49.44-2.49.78l-.26-2.16a11.29,11.29,0,0,1,2.73-1.82,6.56,6.56,0,0,1,2.68-.62Z"/><path d="M403.34,205.89a9.51,9.51,0,0,1,3.88.66,4,4,0,0,1,2.09,2.15,10.15,10.15,0,0,1,.64,4,10,10,0,0,1-.64,3.92,3.93,3.93,0,0,1-2.09,2.13,11.85,11.85,0,0,1-7.74,0,4,4,0,0,1-2.12-2.13,9.94,9.94,0,0,1-.65-3.92,10.13,10.13,0,0,1,.65-4,4.12,4.12,0,0,1,2.12-2.15A9.53,9.53,0,0,1,403.34,205.89Zm0,2.81a3,3,0,0,0-1.56.34,1.84,1.84,0,0,0-.8,1.19,9.6,9.6,0,0,0-.24,2.45,9.36,9.36,0,0,0,.24,2.41,1.81,1.81,0,0,0,.8,1.19,4,4,0,0,0,3.12,0,1.82,1.82,0,0,0,.81-1.19,9.43,9.43,0,0,0,.23-2.41,9.68,9.68,0,0,0-.23-2.45,1.85,1.85,0,0,0-.81-1.19A3,3,0,0,0,403.34,208.7Z"/><path d="M416.45,200.87l0,14.09a1.2,1.2,0,0,0,.39,1,1.73,1.73,0,0,0,1.15.32h1l.44,2.6a3.6,3.6,0,0,1-.89.28,11,11,0,0,1-1.17.18c-.4,0-.73.06-1,.06a4,4,0,0,1-2.76-.91,3.24,3.24,0,0,1-1-2.54V200.87Z"/><path d="M425,200.87,425,215a1.2,1.2,0,0,0,.39,1,1.72,1.72,0,0,0,1.14.32h1l.44,2.6a3.37,3.37,0,0,1-.88.28,11,11,0,0,1-1.17.18c-.4,0-.74.06-1,.06a4,4,0,0,1-2.76-.91,3.21,3.21,0,0,1-1-2.54V200.87Z"/><path d="M435.71,205.89c2.17,0,3.72.37,4.67,1.11a3.91,3.91,0,0,1,1.42,3.28,3.44,3.44,0,0,1-.89,2.64,4.48,4.48,0,0,1-3.14.87h-7.18v-2.15h6.11c.59,0,1-.13,1.13-.38a1.85,1.85,0,0,0,.25-1,1.48,1.48,0,0,0-.54-1.26,3,3,0,0,0-1.7-.36,3.92,3.92,0,0,0-1.66.29,1.62,1.62,0,0,0-.83,1.09,8.71,8.71,0,0,0-.24,2.34,8.42,8.42,0,0,0,.29,2.49,1.9,1.9,0,0,0,1,1.2,4.35,4.35,0,0,0,1.91.34c.59,0,1.33,0,2.2-.06s1.76-.12,2.64-.22l.36,2.36a6.87,6.87,0,0,1-1.71.57,15.72,15.72,0,0,1-2,.3q-1,.09-2,.09a9.17,9.17,0,0,1-3.94-.71,4.35,4.35,0,0,1-2.15-2.2,9.19,9.19,0,0,1-.67-3.79,9.85,9.85,0,0,1,.68-4,4.1,4.1,0,0,1,2.13-2.13A9.51,9.51,0,0,1,435.71,205.89Z"/><path d="M447.31,206.23l.47,2.55.36.33v10h-3.85V206.23Zm6.26-.34-.36,3.56h-1.07a7.59,7.59,0,0,0-1.89.26c-.66.18-1.49.44-2.5.78l-.26-2.16a11.29,11.29,0,0,1,2.73-1.82,6.56,6.56,0,0,1,2.68-.62Z"/><path d="M460.28,205.89c.63,0,1.3,0,2,.07s1.44.1,2.13.16,1.31.16,1.85.26l-.26,2.4-2.51,0-2.46,0q-1,0-1.56,0a1.37,1.37,0,0,0-.76.25.88.88,0,0,0-.23.69.76.76,0,0,0,.39.76,6.91,6.91,0,0,0,1.3.43l3.36.81a5,5,0,0,1,2.39,1.23,3.46,3.46,0,0,1,.78,2.46,4.27,4.27,0,0,1-.6,2.47,3.1,3.1,0,0,1-1.9,1.18,13.93,13.93,0,0,1-3.35.33c-.54,0-1.34,0-2.39-.08a30.25,30.25,0,0,1-3.49-.39l.26-2.39,1.2,0h3.3c.89,0,1.56,0,2-.06a1.79,1.79,0,0,0,1-.3.92.92,0,0,0,.26-.71.79.79,0,0,0-.44-.78,9.13,9.13,0,0,0-1.4-.44l-3.25-.8a5.53,5.53,0,0,1-1.9-.86,2.77,2.77,0,0,1-.95-1.28,5.31,5.31,0,0,1-.27-1.79,3.72,3.72,0,0,1,.53-2.12,3.06,3.06,0,0,1,1.74-1.16A11.64,11.64,0,0,1,460.28,205.89Z"/><rect class="d" x="273.89" y="33.24" width="247.26" height="58.04" rx="21.82"/><rect class="d" x="62.84" y="143.8" width="126.14" height="96.08" rx="21.82"/><path d="M314.84,53c.68,0,1.42,0,2.22.11a13.08,13.08,0,0,1,2.34.45l-.2,2-2.06,0-2.32,0c-.38,0-.69,0-.95,0a1.7,1.7,0,0,0-.63.16.72.72,0,0,0-.34.39,2,2,0,0,0-.1.72,1.36,1.36,0,0,0,.33,1,2.79,2.79,0,0,0,1.13.58l2.66.86a4.38,4.38,0,0,1,2.3,1.52,4.52,4.52,0,0,1,.64,2.52,6,6,0,0,1-.28,2,2.53,2.53,0,0,1-.88,1.22,3.74,3.74,0,0,1-1.58.63,12.68,12.68,0,0,1-2.4.19c-.46,0-1.1,0-1.94-.09a20.05,20.05,0,0,1-2.88-.45l.2-2.16,2,.05c.58,0,1.07,0,1.49,0h1.08a5.86,5.86,0,0,0,1.25-.1.9.9,0,0,0,.63-.4,1.67,1.67,0,0,0,.18-.86,2.05,2.05,0,0,0-.13-.77,1.09,1.09,0,0,0-.42-.46,4.19,4.19,0,0,0-.79-.31l-2.8-1a4.46,4.46,0,0,1-2.24-1.52,4.21,4.21,0,0,1-.66-2.48,5.35,5.35,0,0,1,.29-2,2.41,2.41,0,0,1,.9-1.17,3.87,3.87,0,0,1,1.58-.58A15.29,15.29,0,0,1,314.84,53Z"/><path d="M326.5,56.87a5.92,5.92,0,0,1,3.58.85,3,3,0,0,1,1.09,2.53,2.61,2.61,0,0,1-.67,2,3.47,3.47,0,0,1-2.42.67h-5.52V61.29h4.69c.46,0,.75-.09.87-.29a1.42,1.42,0,0,0,.2-.81,1.17,1.17,0,0,0-.41-1A2.39,2.39,0,0,0,326.6,59a3.1,3.1,0,0,0-1.28.22,1.27,1.27,0,0,0-.65.84,7.47,7.47,0,0,0-.17,1.8,6.66,6.66,0,0,0,.21,1.91,1.49,1.49,0,0,0,.75.93,3.36,3.36,0,0,0,1.48.26c.45,0,1,0,1.68,0s1.36-.09,2-.17l.28,1.82a5.53,5.53,0,0,1-1.32.44,10.92,10.92,0,0,1-1.52.23c-.52,0-1,.07-1.5.07a7,7,0,0,1-3-.55A3.3,3.3,0,0,1,321.91,65a7.18,7.18,0,0,1-.51-2.92,7.49,7.49,0,0,1,.52-3.08,3.17,3.17,0,0,1,1.64-1.64A7.3,7.3,0,0,1,326.5,56.87Z"/><path d="M337.7,56.87c.36,0,.75,0,1.18.05s.85.1,1.29.18a5.92,5.92,0,0,1,1.19.37L341,59.33l-1.53,0-1.31,0a3.43,3.43,0,0,0-1.42.24,1.44,1.44,0,0,0-.75.85,4.8,4.8,0,0,0-.23,1.69,4.91,4.91,0,0,0,.23,1.72,1.41,1.41,0,0,0,.75.86,3.43,3.43,0,0,0,1.42.24c.21,0,.48,0,.82,0l1.08,0a11,11,0,0,0,1.14-.11l.28,1.88a6.92,6.92,0,0,1-1.82.52,12.68,12.68,0,0,1-2,.16,7,7,0,0,1-2.93-.51,3.06,3.06,0,0,1-1.57-1.65,8,8,0,0,1-.48-3,7.78,7.78,0,0,1,.49-3,3,3,0,0,1,1.59-1.64A7.17,7.17,0,0,1,337.7,56.87Z"/><path d="M347.86,56.87a7.24,7.24,0,0,1,3,.51A3.11,3.11,0,0,1,352.45,59a8,8,0,0,1,.49,3.06,7.86,7.86,0,0,1-.49,3,3.06,3.06,0,0,1-1.62,1.64,7.26,7.26,0,0,1-3,.5,7.37,7.37,0,0,1-3-.5,3.11,3.11,0,0,1-1.63-1.64,7.66,7.66,0,0,1-.5-3,7.81,7.81,0,0,1,.5-3.06,3.17,3.17,0,0,1,1.63-1.65A7.36,7.36,0,0,1,347.86,56.87Zm0,2.16a2.37,2.37,0,0,0-1.2.26,1.44,1.44,0,0,0-.62.92,7.56,7.56,0,0,0-.18,1.88A7.44,7.44,0,0,0,346,64a1.37,1.37,0,0,0,.62.91,3,3,0,0,0,2.39,0,1.37,1.37,0,0,0,.62-.91,7.36,7.36,0,0,0,.19-1.86,7.48,7.48,0,0,0-.19-1.88,1.44,1.44,0,0,0-.62-.92A2.36,2.36,0,0,0,347.86,59Z"/><path d="M357.33,57.13l.34,2,.25.26V67h-3V57.13Zm4.5-.26c1.87,0,2.8.92,2.8,2.74V67h-3V60.53a1.32,1.32,0,0,0-.24-.91,1.12,1.12,0,0,0-.81-.25,4,4,0,0,0-1.33.25,16.78,16.78,0,0,0-1.67.77l-.15-1.66a9,9,0,0,1,2.17-1.38A5.52,5.52,0,0,1,361.83,56.87Z"/><path d="M370.35,56.87a6.7,6.7,0,0,1,2,.3,4.42,4.42,0,0,1,1.71,1l-.2,1.36-1.22-.36a4.71,4.71,0,0,0-1.26-.16,2.09,2.09,0,0,0-1,.22,1.4,1.4,0,0,0-.56.86,7.52,7.52,0,0,0-.18,1.9,7.21,7.21,0,0,0,.17,1.79,1.4,1.4,0,0,0,.54.84,1.74,1.74,0,0,0,.95.23,3,3,0,0,0,.9-.11,2.69,2.69,0,0,0,.76-.34c.26-.15.54-.34.86-.57l.22,1.46a5.06,5.06,0,0,1-1.56,1.41,4.53,4.53,0,0,1-2.36.57,2.9,2.9,0,0,1-2.71-1.36,7.66,7.66,0,0,1-.81-3.9A9.32,9.32,0,0,1,367,58.9a2.84,2.84,0,0,1,1.25-1.57A4.38,4.38,0,0,1,370.35,56.87ZM376.49,53V67h-2.34l-.3-1.82-.32-.22V58.49l.12-.26c0-.41-.07-.83-.09-1.25s0-.85,0-1.29V53Z"/><path d="M386.77,60.93l0,1.66-4.4,0a1,1,0,0,0-.77.26,1.05,1.05,0,0,0-.23.7v.48a1,1,0,0,0,.28.77,1.27,1.27,0,0,0,.9.27,3.23,3.23,0,0,0,1.13-.22,5.14,5.14,0,0,0,1.21-.62,4.77,4.77,0,0,0,1.06-.94v1.28a6.88,6.88,0,0,1-.53.75,5,5,0,0,1-.89.88,5.14,5.14,0,0,1-1.26.73,4.21,4.21,0,0,1-1.64.3,3.84,3.84,0,0,1-1.62-.32,2.57,2.57,0,0,1-1.14-.94,2.66,2.66,0,0,1-.42-1.54v-1a2.27,2.27,0,0,1,.8-1.84,3.38,3.38,0,0,1,2.2-.66Zm-2.64-4.06a5.86,5.86,0,0,1,2.1.33,2.49,2.49,0,0,1,1.31,1.12,4.41,4.41,0,0,1,.45,2.17V67h-2.36l-.42-2.14-.2-.3v-4.1a1.39,1.39,0,0,0-.33-1,1.83,1.83,0,0,0-1.25-.32c-.5,0-1.14,0-1.9,0l-2.34.13-.28-2c.48-.09,1-.17,1.66-.24l1.88-.17C383.08,56.9,383.64,56.87,384.13,56.87Z"/><path d="M392.63,57.13l.36,2,.28.26V67h-3V57.13Zm4.82-.26-.28,2.74h-.82a6,6,0,0,0-1.46.2q-.75.21-1.92.6l-.2-1.66a8.83,8.83,0,0,1,2.1-1.4,5,5,0,0,1,2.06-.48Z"/><path d="M401,57.13l1.88,6.4c.06.26.11.51.16.76s.1.51.14.76h.54l-.94,2H402a.94.94,0,0,1-.6-.2,1,1,0,0,1-.36-.52l-3.26-9.16Zm7.84,0-3.54,10a7.52,7.52,0,0,1-.67,1.49A5.35,5.35,0,0,1,403.5,70a4.17,4.17,0,0,1-1.56.91,4.66,4.66,0,0,1-2.15.15l-.22-1.68a5,5,0,0,0,1.9-.86,3.48,3.48,0,0,0,1.06-1.42l.62-1.38a8.42,8.42,0,0,0,.35-1.07c.12-.42.21-.78.29-1.09l1.84-6.4Z"/><path d="M417.81,56.87c.48,0,1,0,1.56.05l1.64.13c.54.06,1,.12,1.42.2l-.2,1.84-1.93,0h-1.89c-.52,0-.92,0-1.2,0a1.1,1.1,0,0,0-.59.19.7.7,0,0,0-.17.53.59.59,0,0,0,.3.59,5.74,5.74,0,0,0,1,.33l2.58.62a3.84,3.84,0,0,1,1.84,1,2.65,2.65,0,0,1,.6,1.89,3.27,3.27,0,0,1-.46,1.9,2.35,2.35,0,0,1-1.46.91,10.69,10.69,0,0,1-2.58.25c-.41,0-1,0-1.84-.06a24.12,24.12,0,0,1-2.68-.3L414,65c.24,0,.55,0,.92,0h2.54c.68,0,1.2,0,1.56,0a1.28,1.28,0,0,0,.74-.23.67.67,0,0,0,.2-.54.6.6,0,0,0-.34-.6,6.37,6.37,0,0,0-1.08-.34l-2.5-.62a4.23,4.23,0,0,1-1.46-.66,2.14,2.14,0,0,1-.73-1,4,4,0,0,1-.21-1.38A2.91,2.91,0,0,1,414,58a2.43,2.43,0,0,1,1.34-.89A9.12,9.12,0,0,1,417.81,56.87Z"/><path d="M431.29,57.13v1.94h-7.46V57.23l1.92-.1Zm-2.76-2.74v9.46a1,1,0,0,0,.25.77,1.19,1.19,0,0,0,.83.23h1.28l.32,2a6,6,0,0,1-.88.21c-.34.06-.69.11-1,.14a7.51,7.51,0,0,1-.88,0,2.9,2.9,0,0,1-2.09-.72,2.66,2.66,0,0,1-.75-2l0-10.12Z"/><path d="M437.57,56.87a7.26,7.26,0,0,1,3,.51A3.06,3.06,0,0,1,442.16,59a7.83,7.83,0,0,1,.49,3.06,7.68,7.68,0,0,1-.49,3,3,3,0,0,1-1.61,1.64,7.27,7.27,0,0,1-3,.5,7.35,7.35,0,0,1-3-.5A3.11,3.11,0,0,1,433,65.11a7.66,7.66,0,0,1-.5-3A7.81,7.81,0,0,1,433,59a3.17,3.17,0,0,1,1.63-1.65A7.34,7.34,0,0,1,437.57,56.87Zm0,2.16a2.43,2.43,0,0,0-1.2.26,1.48,1.48,0,0,0-.62.92,7.56,7.56,0,0,0-.18,1.88,7.44,7.44,0,0,0,.18,1.86,1.4,1.4,0,0,0,.62.91,2.43,2.43,0,0,0,1.2.25,2.38,2.38,0,0,0,1.2-.25,1.37,1.37,0,0,0,.62-.91,7.44,7.44,0,0,0,.18-1.86,7.56,7.56,0,0,0-.18-1.88,1.44,1.44,0,0,0-.62-.92A2.37,2.37,0,0,0,437.57,59Z"/><path d="M447,57.13l.36,2,.28.26V67h-3V57.13Zm4.82-.26-.28,2.74h-.82a6,6,0,0,0-1.46.2q-.75.21-1.92.6l-.2-1.66a8.83,8.83,0,0,1,2.1-1.4,5,5,0,0,1,2.06-.48Z"/><path d="M461,60.93l0,1.66-4.4,0a1,1,0,0,0-.77.26,1.05,1.05,0,0,0-.23.7v.48a1,1,0,0,0,.28.77,1.27,1.27,0,0,0,.9.27,3.23,3.23,0,0,0,1.13-.22,5.14,5.14,0,0,0,1.21-.62,4.77,4.77,0,0,0,1.06-.94v1.28a6.88,6.88,0,0,1-.53.75,5,5,0,0,1-.89.88,5.14,5.14,0,0,1-1.26.73,4.21,4.21,0,0,1-1.64.3,3.84,3.84,0,0,1-1.62-.32,2.57,2.57,0,0,1-1.14-.94,2.66,2.66,0,0,1-.42-1.54v-1a2.27,2.27,0,0,1,.8-1.84,3.38,3.38,0,0,1,2.2-.66Zm-2.64-4.06a5.86,5.86,0,0,1,2.1.33,2.49,2.49,0,0,1,1.31,1.12,4.41,4.41,0,0,1,.45,2.17V67h-2.36l-.42-2.14-.2-.3v-4.1a1.39,1.39,0,0,0-.33-1,1.83,1.83,0,0,0-1.25-.32c-.5,0-1.14,0-1.9,0l-2.34.13-.28-2c.48-.09,1-.17,1.66-.24l1.88-.17C457.32,56.9,457.88,56.87,458.37,56.87Z"/><path d="M466,62.53l1.48.26a.94.94,0,0,0-.39.5.73.73,0,0,0,.75,1l3.64.42a3.36,3.36,0,0,1,2.2.87,3,3,0,0,1,.64,2.07,3.19,3.19,0,0,1-.52,2,2.72,2.72,0,0,1-1.66.95,13.77,13.77,0,0,1-3,.26,18.12,18.12,0,0,1-2.57-.15,4.58,4.58,0,0,1-1.6-.49,1.85,1.85,0,0,1-.82-.89,3.59,3.59,0,0,1-.23-1.37,2.52,2.52,0,0,1,.22-1.07,2.19,2.19,0,0,1,.75-.81,5.86,5.86,0,0,1,1.49-.66l1.46-.52,1.06.42-.8.52-.81.61a1.92,1.92,0,0,0-.44.49,1.45,1.45,0,0,0-.13.64,1.11,1.11,0,0,0,.2.71,1.16,1.16,0,0,0,.73.34,9.2,9.2,0,0,0,1.45.09,9.65,9.65,0,0,0,1.5-.09,1.25,1.25,0,0,0,.75-.33,1,1,0,0,0,.21-.68.87.87,0,0,0-.15-.56.91.91,0,0,0-.5-.27,9.66,9.66,0,0,0-1-.17l-3.1-.34a2.32,2.32,0,0,1-1.22-.42,1.79,1.79,0,0,1-.61-.83,2.07,2.07,0,0,1-.09-1,2.23,2.23,0,0,1,.37-.9A1.78,1.78,0,0,1,466,62.53Zm3-5.66a9.43,9.43,0,0,1,2.73.32,2.64,2.64,0,0,1,1.46,1,3.27,3.27,0,0,1,.45,1.82,3.21,3.21,0,0,1-.44,1.79,2.52,2.52,0,0,1-1.47,1,12,12,0,0,1-5.5,0,2.6,2.6,0,0,1-1.48-1,3.2,3.2,0,0,1-.45-1.8,3.28,3.28,0,0,1,.45-1.81,2.65,2.65,0,0,1,1.49-1A9.85,9.85,0,0,1,469,56.87Zm0,1.82a2.89,2.89,0,0,0-1.52.29,1.49,1.49,0,0,0,0,2.07,2.77,2.77,0,0,0,1.52.3,2.63,2.63,0,0,0,1.5-.3,1.54,1.54,0,0,0,0-2.07A2.73,2.73,0,0,0,468.93,58.69Zm5.8-1.56-.16,1.26-2.64.34-.72-1.6Z"/><path d="M480.73,56.87a5.94,5.94,0,0,1,3.59.85,3,3,0,0,1,1.09,2.53,2.58,2.58,0,0,1-.68,2,3.43,3.43,0,0,1-2.42.67h-5.52V61.29h4.7c.46,0,.75-.09.87-.29a1.43,1.43,0,0,0,.19-.81,1.14,1.14,0,0,0-.41-1,2.37,2.37,0,0,0-1.31-.27,3.17,3.17,0,0,0-1.28.22,1.29,1.29,0,0,0-.64.84,6.91,6.91,0,0,0-.18,1.8,6.6,6.6,0,0,0,.22,1.91,1.49,1.49,0,0,0,.75.93,3.34,3.34,0,0,0,1.47.26c.46,0,1,0,1.69,0s1.35-.09,2-.17l.28,1.82a5.24,5.24,0,0,1-1.32.44,10.7,10.7,0,0,1-1.52.23c-.52,0-1,.07-1.5.07a7,7,0,0,1-3-.55A3.33,3.33,0,0,1,476.14,65a7.18,7.18,0,0,1-.51-2.92,7.66,7.66,0,0,1,.52-3.08,3.24,3.24,0,0,1,1.64-1.64A7.37,7.37,0,0,1,480.73,56.87Z"/><path d="M99.85,172.49a9.7,9.7,0,0,1,2.78.35,3.78,3.78,0,0,1,1.83,1.16,5.17,5.17,0,0,1,1,2.2,19,19,0,0,1,0,6.94,5.17,5.17,0,0,1-1,2.2,3.78,3.78,0,0,1-1.83,1.16,11.22,11.22,0,0,1-5.56,0,3.81,3.81,0,0,1-1.84-1.16,5,5,0,0,1-1-2.2,19,19,0,0,1,0-6.94,5,5,0,0,1,1-2.2,3.81,3.81,0,0,1,1.84-1.16A9.65,9.65,0,0,1,99.85,172.49Zm0,2.42a2.79,2.79,0,0,0-1.65.42,2.32,2.32,0,0,0-.84,1.45,16.77,16.77,0,0,0,0,5.77A2.35,2.35,0,0,0,98.2,184a3.41,3.41,0,0,0,3.28,0,2.44,2.44,0,0,0,.84-1.46,16.77,16.77,0,0,0,0-5.77,2.41,2.41,0,0,0-.84-1.45A2.79,2.79,0,0,0,99.85,174.91Z"/><path d="M110.83,176.69v6.5a1.19,1.19,0,0,0,.27.88,1.24,1.24,0,0,0,.87.26,3.57,3.57,0,0,0,1.23-.23,12.35,12.35,0,0,0,1.51-.73L115,185a8.61,8.61,0,0,1-2.12,1.4,5.39,5.39,0,0,1-2.14.46q-2.82,0-2.82-2.76v-7.4Zm6.54,0v9.88H115l-.34-1.94-.28-.28v-7.66Z"/><path d="M126.41,176.69v1.94H119v-1.84l1.92-.1ZM123.65,174v9.46a1,1,0,0,0,.25.77,1.21,1.21,0,0,0,.83.23H126l.32,2a6.37,6.37,0,0,1-.88.21c-.35.06-.7.11-1,.14s-.64.05-.88.05a2.88,2.88,0,0,1-2.09-.72,2.66,2.66,0,0,1-.75-2l0-10.12Z"/><path d="M130.39,176.69l.28,1.8.28.3v6.42l-.1.24c0,.4.07.82.09,1.25s0,.86,0,1.29v2.38h-3V176.69Zm4.1-.24a2.84,2.84,0,0,1,2.66,1.36,7.83,7.83,0,0,1,.8,3.9,9.43,9.43,0,0,1-.41,3.1,2.8,2.8,0,0,1-1.24,1.57,4.34,4.34,0,0,1-2.07.45,6.72,6.72,0,0,1-2-.3,4.26,4.26,0,0,1-1.7-1l.2-1.32,1.21.35a4.71,4.71,0,0,0,1.25.15,2,2,0,0,0,1-.22,1.39,1.39,0,0,0,.55-.87,8.09,8.09,0,0,0,.17-1.89,8.72,8.72,0,0,0-.16-1.87,1.48,1.48,0,0,0-.52-.9,1.6,1.6,0,0,0-.94-.25,2.71,2.71,0,0,0-1.18.25,7.84,7.84,0,0,0-1.22.71l-.38-1.36a4,4,0,0,1,1-1,5.4,5.4,0,0,1,1.39-.66A5.09,5.09,0,0,1,134.49,176.45Z"/><path d="M142.89,176.69v6.5a1.19,1.19,0,0,0,.27.88,1.24,1.24,0,0,0,.87.26,3.57,3.57,0,0,0,1.23-.23,12.35,12.35,0,0,0,1.51-.73L147,185a8.61,8.61,0,0,1-2.12,1.4,5.39,5.39,0,0,1-2.14.46q-2.82,0-2.82-2.76v-7.4Zm6.54,0v9.88h-2.34l-.34-1.94-.28-.28v-7.66Z"/><path d="M158.47,176.69v1.94H151v-1.84l1.92-.1ZM155.71,174v9.46a1,1,0,0,0,.25.77,1.21,1.21,0,0,0,.83.23h1.28l.32,2a6.37,6.37,0,0,1-.88.21c-.35.06-.7.11-1,.14s-.64.05-.88.05a2.88,2.88,0,0,1-2.09-.72,2.66,2.66,0,0,1-.75-2l0-10.12Z"/><path d="M94.53,200.43a6.8,6.8,0,0,1,2,.3,4.57,4.57,0,0,1,1.71,1l-.2,1.36-1.22-.36a4.33,4.33,0,0,0-1.26-.16,1.93,1.93,0,0,0-1,.22,1.33,1.33,0,0,0-.56.86,7.52,7.52,0,0,0-.18,1.9,6.8,6.8,0,0,0,.17,1.79,1.32,1.32,0,0,0,.54.84,1.78,1.78,0,0,0,.95.23,3.46,3.46,0,0,0,.9-.11,3.36,3.36,0,0,0,.76-.34c.25-.15.54-.34.86-.57l.22,1.46a5.06,5.06,0,0,1-1.56,1.41,4.56,4.56,0,0,1-2.36.57,2.89,2.89,0,0,1-2.71-1.36,7.71,7.71,0,0,1-.81-3.9,9.07,9.07,0,0,1,.41-3.09,2.8,2.8,0,0,1,1.25-1.57A4.24,4.24,0,0,1,94.53,200.43Zm6.14-3.86v14H98.33l-.3-1.82-.32-.22v-6.48l.12-.26c0-.41-.07-.83-.09-1.25s0-.85,0-1.29v-2.68Z"/><path d="M107.77,200.43a5.91,5.91,0,0,1,3.59.85,3,3,0,0,1,1.09,2.53,2.67,2.67,0,0,1-.68,2,3.47,3.47,0,0,1-2.42.67h-5.52v-1.66h4.7c.45,0,.74-.1.87-.29a1.51,1.51,0,0,0,.19-.81,1.15,1.15,0,0,0-.41-1,2.39,2.39,0,0,0-1.31-.27,3,3,0,0,0-1.28.22,1.26,1.26,0,0,0-.64.84,6.81,6.81,0,0,0-.18,1.8,6.31,6.31,0,0,0,.22,1.91,1.43,1.43,0,0,0,.75.93,3.43,3.43,0,0,0,1.47.26c.45,0,1,0,1.69-.05s1.35-.09,2-.17l.28,1.82a6,6,0,0,1-1.32.44,15,15,0,0,1-1.52.23c-.52,0-1,.07-1.5.07a7.14,7.14,0,0,1-3-.55,3.33,3.33,0,0,1-1.66-1.69,7.18,7.18,0,0,1-.51-2.92,7.49,7.49,0,0,1,.52-3.08,3.13,3.13,0,0,1,1.64-1.64A7.3,7.3,0,0,1,107.77,200.43Z"/><path d="M124.23,200.69,121,209.87a1.2,1.2,0,0,1-.37.51,1,1,0,0,1-.59.19h-2.58a.91.91,0,0,1-.59-.19,1.13,1.13,0,0,1-.37-.51l-3.26-9.18h3.14l1.82,6.18c.08.29.15.59.22.9s.13.6.2.88h.26c.08-.29.15-.59.23-.89s.15-.6.23-.89l1.78-6.18Z"/><path d="M127.79,196.33a.79.79,0,0,1,.88.9v1.06a.79.79,0,0,1-.88.9h-1.28a.79.79,0,0,1-.88-.9v-1.06a.79.79,0,0,1,.88-.9Zm.82,4.36v9.88h-2.94v-9.88Z"/><path d="M135.71,200.43c.36,0,.75,0,1.18,0a10,10,0,0,1,1.29.18,5.92,5.92,0,0,1,1.19.37l-.32,1.86-1.53,0-1.31,0a3.43,3.43,0,0,0-1.42.24,1.42,1.42,0,0,0-.75.85,4.8,4.8,0,0,0-.23,1.69,5,5,0,0,0,.23,1.72,1.43,1.43,0,0,0,.75.86,3.43,3.43,0,0,0,1.42.24l.82,0,1.08,0c.38,0,.76-.06,1.14-.11l.28,1.88a7.33,7.33,0,0,1-1.82.52,14,14,0,0,1-2,.16,7,7,0,0,1-2.93-.51,3.06,3.06,0,0,1-1.57-1.65,8,8,0,0,1-.48-3,7.75,7.75,0,0,1,.49-3,3,3,0,0,1,1.59-1.64A7.17,7.17,0,0,1,135.71,200.43Z"/><path d="M145.85,200.43a5.91,5.91,0,0,1,3.59.85,3,3,0,0,1,1.09,2.53,2.67,2.67,0,0,1-.68,2,3.47,3.47,0,0,1-2.42.67h-5.52v-1.66h4.7c.45,0,.74-.1.87-.29a1.51,1.51,0,0,0,.19-.81,1.15,1.15,0,0,0-.41-1,2.39,2.39,0,0,0-1.31-.27,3,3,0,0,0-1.28.22,1.26,1.26,0,0,0-.64.84,6.81,6.81,0,0,0-.18,1.8,6.31,6.31,0,0,0,.22,1.91,1.43,1.43,0,0,0,.75.93,3.43,3.43,0,0,0,1.47.26c.45,0,1,0,1.69-.05s1.35-.09,2-.17l.28,1.82a6,6,0,0,1-1.32.44,15,15,0,0,1-1.52.23c-.52,0-1,.07-1.5.07a7.14,7.14,0,0,1-3-.55,3.33,3.33,0,0,1-1.66-1.69,7.18,7.18,0,0,1-.51-2.92,7.49,7.49,0,0,1,.52-3.08,3.13,3.13,0,0,1,1.64-1.64A7.3,7.3,0,0,1,145.85,200.43Z"/><path d="M156.21,200.43c.48,0,1,0,1.56,0s1.1.08,1.64.13,1,.12,1.42.2l-.2,1.84-1.93,0h-1.89a10.68,10.68,0,0,0-1.2,0,1.07,1.07,0,0,0-.59.19.66.66,0,0,0-.17.53.6.6,0,0,0,.3.59,5.45,5.45,0,0,0,1,.33l2.58.62a3.8,3.8,0,0,1,1.84,1,2.65,2.65,0,0,1,.6,1.89,3.35,3.35,0,0,1-.46,1.9,2.45,2.45,0,0,1-1.46.91,10.8,10.8,0,0,1-2.58.25c-.42,0-1,0-1.84-.06a23.61,23.61,0,0,1-2.68-.3l.2-1.84.92,0h2.54c.68,0,1.2,0,1.56,0a1.31,1.31,0,0,0,.74-.23.7.7,0,0,0,.2-.54.62.62,0,0,0-.34-.6,6.08,6.08,0,0,0-1.08-.34l-2.5-.62a4.06,4.06,0,0,1-1.46-.66,2.12,2.12,0,0,1-.73-1,4.09,4.09,0,0,1-.21-1.38,2.83,2.83,0,0,1,.41-1.63,2.35,2.35,0,0,1,1.34-.89A8.69,8.69,0,0,1,156.21,200.43Z"/><line class="f" x1="296.32" y1="192.83" x2="203.4" y2="192.83"/><polygon class="g" points="206.33 182.8 188.98 192.82 206.33 202.85 206.33 182.8"/><rect class="e" x="314.38" y="301.67" width="166.27" height="269.8" rx="21.82"/><path d="M344.4,425.51a11.85,11.85,0,0,1,4,.52,3.49,3.49,0,0,1,2,1.79,8.38,8.38,0,0,1,.61,3.56,8.78,8.78,0,0,1-.58,3.57,3.35,3.35,0,0,1-1.91,1.78,10.28,10.28,0,0,1-3.59.51c-.8,0-1.58,0-2.34-.11s-1.48-.15-2.13-.26-1.23-.21-1.69-.32a4,4,0,0,1-1-.33l.08-2h6.45A5.12,5.12,0,0,0,346,434a1.5,1.5,0,0,0,.83-.86,6.54,6.54,0,0,0,0-3.51,1.49,1.49,0,0,0-.83-.87,4.22,4.22,0,0,0-1.63-.25q-2.38,0-4.11,0c-1.14,0-1.91.05-2.31.1l-.39-2.86c.73-.09,1.41-.15,2.05-.18s1.34-.06,2.1-.07Zm-2.91.26v17.94h-4V425.77Z"/><path d="M356.36,430.87l.47,2.54.36.34v10h-3.85V430.87Zm6.26-.34-.36,3.56h-1.07a7.59,7.59,0,0,0-1.89.26c-.66.17-1.49.43-2.5.78l-.26-2.16a11,11,0,0,1,2.73-1.82,6.56,6.56,0,0,1,2.68-.62Z"/><path d="M370.35,430.53a9.49,9.49,0,0,1,3.87.66,4,4,0,0,1,2.09,2.14,10.18,10.18,0,0,1,.64,4,10,10,0,0,1-.64,3.93,3.93,3.93,0,0,1-2.09,2.13,11.85,11.85,0,0,1-7.74,0,4,4,0,0,1-2.11-2.13,9.82,9.82,0,0,1-.65-3.93,10,10,0,0,1,.65-4,4.09,4.09,0,0,1,2.11-2.14A9.55,9.55,0,0,1,370.35,430.53Zm0,2.8a3.11,3.11,0,0,0-1.56.34,1.9,1.9,0,0,0-.81,1.2,9.64,9.64,0,0,0-.23,2.44,9.52,9.52,0,0,0,.23,2.42,1.8,1.8,0,0,0,.81,1.18,3.12,3.12,0,0,0,1.56.33,3.17,3.17,0,0,0,1.56-.33,1.79,1.79,0,0,0,.8-1.18,9.44,9.44,0,0,0,.24-2.42,9.56,9.56,0,0,0-.24-2.44,1.88,1.88,0,0,0-.8-1.2A3.17,3.17,0,0,0,370.35,433.33Z"/><path d="M385.56,430.53c.46,0,1,0,1.53.06a14.15,14.15,0,0,1,1.68.24,6.94,6.94,0,0,1,1.54.48l-.41,2.42-2-.06-1.7,0a4.47,4.47,0,0,0-1.85.31,1.87,1.87,0,0,0-1,1.1,6.46,6.46,0,0,0-.3,2.2,6.68,6.68,0,0,0,.3,2.24,1.85,1.85,0,0,0,1,1.12,4.64,4.64,0,0,0,1.85.31l1.06,0,1.41-.06c.5,0,1-.08,1.48-.15l.36,2.45a9.34,9.34,0,0,1-2.36.67,16.84,16.84,0,0,1-2.63.21,9.18,9.18,0,0,1-3.81-.66,4,4,0,0,1-2-2.15,12.79,12.79,0,0,1,0-7.9,4,4,0,0,1,2.07-2.13A9.18,9.18,0,0,1,385.56,430.53Z"/><path d="M398.74,430.53a7.71,7.71,0,0,1,4.66,1.1,3.9,3.9,0,0,1,1.42,3.29,3.43,3.43,0,0,1-.88,2.64,4.53,4.53,0,0,1-3.15.87h-7.17v-2.16h6.11c.58,0,1-.12,1.13-.37a2,2,0,0,0,.24-1.06,1.47,1.47,0,0,0-.53-1.26,3.15,3.15,0,0,0-1.7-.35,4,4,0,0,0-1.67.29,1.62,1.62,0,0,0-.83,1.09,9.22,9.22,0,0,0-.23,2.34,8.4,8.4,0,0,0,.28,2.48,1.93,1.93,0,0,0,1,1.21,4.33,4.33,0,0,0,1.91.34c.59,0,1.32,0,2.2-.07s1.75-.11,2.64-.22l.36,2.37a7.89,7.89,0,0,1-1.72.57,15.85,15.85,0,0,1-2,.3q-1,.09-1.95.09a9.29,9.29,0,0,1-3.94-.71,4.33,4.33,0,0,1-2.16-2.2,9.39,9.39,0,0,1-.66-3.8,9.81,9.81,0,0,1,.67-4,4.09,4.09,0,0,1,2.14-2.13A9.34,9.34,0,0,1,398.74,430.53Z"/><path d="M412.21,430.53c.62,0,1.3,0,2,.06s1.44.1,2.14.17,1.3.16,1.84.26l-.26,2.39-2.51,0H413a12,12,0,0,0-1.56,0,1.34,1.34,0,0,0-.77.24.88.88,0,0,0-.22.69.77.77,0,0,0,.39.77,7.42,7.42,0,0,0,1.3.43l3.35.81a4.81,4.81,0,0,1,2.39,1.23,3.44,3.44,0,0,1,.78,2.46,4.37,4.37,0,0,1-.59,2.47,3.18,3.18,0,0,1-1.9,1.18,14.08,14.08,0,0,1-3.36.33c-.53,0-1.33,0-2.39-.08a29.86,29.86,0,0,1-3.48-.39l.26-2.4c.31,0,.71,0,1.19,0l1.59,0h1.72c.88,0,1.56,0,2-.07a1.7,1.7,0,0,0,1-.3.9.9,0,0,0,.26-.7.78.78,0,0,0-.45-.78,8.13,8.13,0,0,0-1.4-.44l-3.25-.81a5.53,5.53,0,0,1-1.9-.85A2.82,2.82,0,0,1,407,436a5.31,5.31,0,0,1-.27-1.79,3.78,3.78,0,0,1,.53-2.12,3.07,3.07,0,0,1,1.75-1.16A11.54,11.54,0,0,1,412.21,430.53Z"/><path d="M426,430.53c.63,0,1.3,0,2,.06s1.44.1,2.13.17,1.31.16,1.85.26l-.26,2.39-2.51,0h-2.46a12.1,12.1,0,0,0-1.56,0,1.37,1.37,0,0,0-.77.24.92.92,0,0,0-.22.69.77.77,0,0,0,.39.77,7.73,7.73,0,0,0,1.3.43l3.36.81a4.86,4.86,0,0,1,2.39,1.23,3.44,3.44,0,0,1,.78,2.46,4.29,4.29,0,0,1-.6,2.47,3.15,3.15,0,0,1-1.9,1.18,13.93,13.93,0,0,1-3.35.33c-.54,0-1.34,0-2.39-.08a30.25,30.25,0,0,1-3.49-.39l.26-2.4c.32,0,.71,0,1.2,0l1.59,0h1.71c.89,0,1.56,0,2-.07a1.64,1.64,0,0,0,1-.3.9.9,0,0,0,.26-.7.79.79,0,0,0-.44-.78,8.43,8.43,0,0,0-1.4-.44l-3.25-.81a5.53,5.53,0,0,1-1.9-.85,2.82,2.82,0,0,1-.95-1.28,5.31,5.31,0,0,1-.27-1.79,3.7,3.7,0,0,1,.53-2.12,3,3,0,0,1,1.74-1.16A11.64,11.64,0,0,1,426,430.53Z"/><path d="M441,430.53a9.49,9.49,0,0,1,3.87.66,4.07,4.07,0,0,1,2.1,2.14,10.39,10.39,0,0,1,.63,4,10.22,10.22,0,0,1-.63,3.93,4,4,0,0,1-2.1,2.13,11.82,11.82,0,0,1-7.73,0,4,4,0,0,1-2.12-2.13,10,10,0,0,1-.65-3.93,10.16,10.16,0,0,1,.65-4,4.07,4.07,0,0,1,2.12-2.14A9.5,9.5,0,0,1,441,430.53Zm0,2.8a3.11,3.11,0,0,0-1.56.34,1.93,1.93,0,0,0-.81,1.2,10.13,10.13,0,0,0-.23,2.44,10,10,0,0,0,.23,2.42,1.83,1.83,0,0,0,.81,1.18,3.85,3.85,0,0,0,3.12,0,1.83,1.83,0,0,0,.81-1.18,10,10,0,0,0,.23-2.42,10.13,10.13,0,0,0-.23-2.44,1.93,1.93,0,0,0-.81-1.2A3.11,3.11,0,0,0,441,433.33Z"/><path d="M453.29,430.87l.46,2.54.37.34v10h-3.85V430.87Zm6.26-.34-.36,3.56h-1.07a7.61,7.61,0,0,0-1.9.26q-1,.25-2.49.78l-.26-2.16a11,11,0,0,1,2.73-1.82,6.56,6.56,0,0,1,2.68-.62Z"/><rect class="d" x="537.47" y="302.05" width="166.27" height="269.8" rx="21.82"/><path class="h" d="M696.09,528.45V553c0,4.57-6.29,8.27-14,8.28H561.14c-7.74,0-14-3.71-14-8.28v-24.5"/><polyline class="h" points="696.09 467.41 696.09 491.23 547.11 491.23 547.11 467.41"/><path class="h" d="M546.21,341.69V318.44c0-4.33,6.29-7.85,14-7.86H681.17c7.73,0,14,3.53,14,7.86v23.25"/><polyline class="h" points="546.21 402.41 546.21 380.58 695.19 380.58 695.19 402.41"/><path d="M559.25,409.55v17.94h-4V409.55Z"/><path d="M565.73,414.64l.44,2.55.31.34v10h-3.85V414.64Zm5.85-.34c2.42,0,3.64,1.19,3.64,3.57v9.62h-3.85v-8.43a1.7,1.7,0,0,0-.31-1.18,1.43,1.43,0,0,0-1.07-.33,4.88,4.88,0,0,0-1.71.33,20.56,20.56,0,0,0-2.19,1l-.18-2.16a11.19,11.19,0,0,1,2.82-1.79A7.07,7.07,0,0,1,571.58,414.3Z"/><path d="M583.15,414.3c.62,0,1.3,0,2,.07s1.43.1,2.13.17,1.31.16,1.84.26l-.26,2.39-2.51,0h-2.45a12,12,0,0,0-1.56,0,1.34,1.34,0,0,0-.77.24.88.88,0,0,0-.22.69.78.78,0,0,0,.39.77,7.42,7.42,0,0,0,1.3.43l3.35.8a4.94,4.94,0,0,1,2.4,1.24,3.42,3.42,0,0,1,.78,2.45,4.27,4.27,0,0,1-.6,2.47,3.11,3.11,0,0,1-1.9,1.19,14.05,14.05,0,0,1-3.35.32c-.54,0-1.34,0-2.4-.07a33,33,0,0,1-3.48-.4l.26-2.39,1.2,0h3.3c.88,0,1.56,0,2-.06a1.69,1.69,0,0,0,1-.3.9.9,0,0,0,.26-.7.79.79,0,0,0-.44-.78,7.73,7.73,0,0,0-1.41-.44l-3.25-.81a5.43,5.43,0,0,1-1.9-.86,2.72,2.72,0,0,1-.94-1.27,5.06,5.06,0,0,1-.28-1.79,3.7,3.7,0,0,1,.54-2.12,3,3,0,0,1,1.74-1.16A11.49,11.49,0,0,1,583.15,414.3Z"/><path d="M600.67,414.64v2.53H591v-2.4l2.5-.13Zm-3.59-3.56v12.3a1.29,1.29,0,0,0,.33,1,1.57,1.57,0,0,0,1.08.3h1.66l.42,2.6a9,9,0,0,1-1.15.27q-.67.12-1.35.18a10.44,10.44,0,0,1-1.14.07,3.75,3.75,0,0,1-2.72-.94,3.46,3.46,0,0,1-1-2.62l0-13.16Z"/><path d="M605.74,414.64l.47,2.55.36.34v10h-3.84V414.64Zm6.27-.34-.37,3.57h-1.06a7.17,7.17,0,0,0-1.9.26c-.66.17-1.49.43-2.5.78l-.26-2.16a11.09,11.09,0,0,1,2.73-1.82,6.42,6.42,0,0,1,2.68-.63Z"/><path d="M617.6,414.64v8.45a1.54,1.54,0,0,0,.35,1.15,1.61,1.61,0,0,0,1.13.34,4.49,4.49,0,0,0,1.6-.3,16,16,0,0,0,2-.95l.31,2.1a10.89,10.89,0,0,1-2.75,1.82,6.79,6.79,0,0,1-2.78.6c-2.45,0-3.67-1.19-3.67-3.59v-9.62Zm8.5,0v12.85h-3l-.44-2.53-.37-.36v-10Z"/><path d="M635.23,414.3c.46,0,1,0,1.53.07a14.39,14.39,0,0,1,1.68.23,8.18,8.18,0,0,1,1.54.48l-.41,2.42-2-.05-1.7,0a4.46,4.46,0,0,0-1.85.32,1.88,1.88,0,0,0-1,1.1,6.72,6.72,0,0,0-.29,2.2,7,7,0,0,0,.29,2.24,1.87,1.87,0,0,0,1,1.11,4.46,4.46,0,0,0,1.85.32l1.06,0,1.41-.07a14.53,14.53,0,0,0,1.48-.14l.36,2.45a9.34,9.34,0,0,1-2.36.67,16.84,16.84,0,0,1-2.63.21,9.12,9.12,0,0,1-3.81-.66,4,4,0,0,1-2-2.15,12.79,12.79,0,0,1,0-7.9,4,4,0,0,1,2.07-2.13A9.16,9.16,0,0,1,635.23,414.3Z"/><path d="M651.08,414.64v2.53h-9.69v-2.4l2.49-.13Zm-3.58-3.56v12.3a1.33,1.33,0,0,0,.32,1,1.58,1.58,0,0,0,1.08.3h1.67l.41,2.6a8.79,8.79,0,0,1-1.14.27q-.68.12-1.35.18a10.75,10.75,0,0,1-1.15.07,3.75,3.75,0,0,1-2.72-.94,3.46,3.46,0,0,1-1-2.62l0-13.16Z"/><path d="M656,409a1,1,0,0,1,1.14,1.18v1.37a1,1,0,0,1-1.14,1.17h-1.67a1,1,0,0,1-1.14-1.17v-1.37a1,1,0,0,1,1.14-1.18Zm1.07,5.67v12.85h-3.83V414.64Z"/><path d="M666.42,414.3a9.49,9.49,0,0,1,3.88.67,4,4,0,0,1,2.09,2.14,10.18,10.18,0,0,1,.64,4,10,10,0,0,1-.64,3.93,4,4,0,0,1-2.09,2.13,11.85,11.85,0,0,1-7.74,0,4,4,0,0,1-2.11-2.13,9.8,9.8,0,0,1-.66-3.93,10,10,0,0,1,.66-4,4,4,0,0,1,2.11-2.14A9.52,9.52,0,0,1,666.42,414.3Zm0,2.81a3.1,3.1,0,0,0-1.55.34,1.86,1.86,0,0,0-.81,1.2,13,13,0,0,0,0,4.86,1.76,1.76,0,0,0,.81,1.18,3.1,3.1,0,0,0,1.55.33,3.19,3.19,0,0,0,1.57-.33,1.82,1.82,0,0,0,.8-1.18,13,13,0,0,0,0-4.86,1.92,1.92,0,0,0-.8-1.2A3.18,3.18,0,0,0,666.42,417.11Z"/><path d="M678.75,414.64l.44,2.55.31.34v10h-3.85V414.64Zm5.85-.34q3.64,0,3.64,3.57v9.62h-3.85v-8.43a1.7,1.7,0,0,0-.31-1.18,1.43,1.43,0,0,0-1.07-.33,4.88,4.88,0,0,0-1.71.33,20.56,20.56,0,0,0-2.19,1l-.18-2.16a11.19,11.19,0,0,1,2.82-1.79A7.07,7.07,0,0,1,684.6,414.3Z"/><path d="M575.7,445.84l.39,2.55.39.34v10h-3.85V445.84Zm5.2-.34a3.53,3.53,0,0,1,2.61.9,3.62,3.62,0,0,1,.9,2.67v9.62h-3.69v-8.43a1.62,1.62,0,0,0-.35-1.17,1.55,1.55,0,0,0-1.08-.34,3.15,3.15,0,0,0-.87.12,4.75,4.75,0,0,0-1,.41,14.45,14.45,0,0,0-1.37.8l-.23-2.13a10.24,10.24,0,0,1,2.47-1.83A5.6,5.6,0,0,1,580.9,445.5Zm8,0a3.2,3.2,0,0,1,3.56,3.57v9.62h-3.82v-8.43a1.7,1.7,0,0,0-.32-1.15,1.37,1.37,0,0,0-1.09-.36,2.84,2.84,0,0,0-.88.14,5.19,5.19,0,0,0-1,.41c-.37.19-.81.45-1.33.78l-.21-2.13a9.66,9.66,0,0,1,2.46-1.83A5.62,5.62,0,0,1,588.91,445.5Z"/><path d="M601.62,445.5c2.17,0,3.72.37,4.67,1.11a3.92,3.92,0,0,1,1.41,3.29,3.4,3.4,0,0,1-.88,2.64,4.51,4.51,0,0,1-3.15.87H596.5v-2.16h6.11c.59,0,1-.12,1.13-.38a1.94,1.94,0,0,0,.25-1.05,1.48,1.48,0,0,0-.54-1.26,3.1,3.1,0,0,0-1.7-.35,3.77,3.77,0,0,0-1.66.29,1.63,1.63,0,0,0-.84,1.09,9.12,9.12,0,0,0-.23,2.34,8.34,8.34,0,0,0,.29,2.48,1.94,1.94,0,0,0,1,1.21,4.5,4.5,0,0,0,1.91.34c.59,0,1.32,0,2.2-.07s1.75-.11,2.64-.22l.36,2.37a7.8,7.8,0,0,1-1.71.57,15.72,15.72,0,0,1-2,.3c-.68.06-1.32.09-2,.09a9.15,9.15,0,0,1-3.94-.72,4.31,4.31,0,0,1-2.16-2.19,9.42,9.42,0,0,1-.66-3.8,9.8,9.8,0,0,1,.68-4,4.1,4.1,0,0,1,2.13-2.13A9.33,9.33,0,0,1,601.62,445.5Z"/><path d="M613.27,445.84l.39,2.55.39.34v10H610.2V445.84Zm5.2-.34a3.53,3.53,0,0,1,2.61.9,3.62,3.62,0,0,1,.9,2.67v9.62h-3.69v-8.43a1.62,1.62,0,0,0-.35-1.17,1.55,1.55,0,0,0-1.08-.34,3.15,3.15,0,0,0-.87.12,4.75,4.75,0,0,0-1,.41,14.45,14.45,0,0,0-1.37.8L613.4,448a10.24,10.24,0,0,1,2.47-1.83A5.6,5.6,0,0,1,618.47,445.5Zm8,0a3.2,3.2,0,0,1,3.56,3.57v9.62h-3.82v-8.43a1.7,1.7,0,0,0-.32-1.15,1.37,1.37,0,0,0-1.09-.36,2.84,2.84,0,0,0-.88.14,5.19,5.19,0,0,0-1,.41c-.37.19-.81.45-1.33.78l-.21-2.13a9.66,9.66,0,0,1,2.46-1.83A5.65,5.65,0,0,1,626.48,445.5Z"/><path d="M639.22,445.5a9.47,9.47,0,0,1,3.87.67,4,4,0,0,1,2.09,2.14,10.18,10.18,0,0,1,.64,4,10,10,0,0,1-.64,3.93,3.93,3.93,0,0,1-2.09,2.13,11.82,11.82,0,0,1-7.73,0,4,4,0,0,1-2.12-2.13,9.82,9.82,0,0,1-.65-3.93,10,10,0,0,1,.65-4,4.07,4.07,0,0,1,2.12-2.14A9.45,9.45,0,0,1,639.22,445.5Zm0,2.81a3.11,3.11,0,0,0-1.56.34,1.93,1.93,0,0,0-.81,1.2,13,13,0,0,0,0,4.86,1.83,1.83,0,0,0,.81,1.18,3.85,3.85,0,0,0,3.12,0,1.79,1.79,0,0,0,.8-1.18,12.42,12.42,0,0,0,0-4.86,1.88,1.88,0,0,0-.8-1.2A3.11,3.11,0,0,0,639.22,448.31Z"/><path d="M651.46,445.84l.47,2.55.36.34v10h-3.84V445.84Zm6.27-.34-.37,3.57H656.3a7.17,7.17,0,0,0-1.9.26c-.66.17-1.49.43-2.5.78l-.26-2.16a11,11,0,0,1,2.74-1.82,6.38,6.38,0,0,1,2.67-.63Z"/><path d="M662.28,445.84l2.44,8.32.21,1q.11.5.18,1h.7l-1.22,2.55h-.93a1.24,1.24,0,0,1-.78-.26,1.36,1.36,0,0,1-.47-.68l-4.24-11.91Zm10.19,0-4.6,13a10.64,10.64,0,0,1-.87,1.94,7.43,7.43,0,0,1-1.41,1.76,5.64,5.64,0,0,1-2,1.18,6.19,6.19,0,0,1-2.8.19l-.29-2.18a6.61,6.61,0,0,0,2.47-1.12,4.68,4.68,0,0,0,1.38-1.84l.81-1.8a11.44,11.44,0,0,0,.45-1.39c.15-.55.28-1,.38-1.42l2.39-8.32Z"/><line class="c" x1="397.51" y1="304.05" x2="397.51" y2="239.88"/><line class="c" x1="385.5" y1="304.26" x2="385.5" y2="239.88"/><line class="c" x1="409.53" y1="304.65" x2="409.53" y2="239.88"/><path d="M154.69,409a12.44,12.44,0,0,1,3.6.45,5.09,5.09,0,0,1,2.37,1.5,6.61,6.61,0,0,1,1.31,2.82,23.89,23.89,0,0,1,0,8.92,6.61,6.61,0,0,1-1.31,2.82,5,5,0,0,1-2.37,1.49,12.07,12.07,0,0,1-3.6.46c-1.37,0-2.63,0-3.77-.08s-2.24-.11-3.28-.18l1.67-2.94c.66,0,1.44.07,2.35.09s1.92,0,3,0a3.65,3.65,0,0,0,2.09-.53,3.12,3.12,0,0,0,1.1-1.89,22.07,22.07,0,0,0,0-7.49,3.12,3.12,0,0,0-1.1-1.89,3.5,3.5,0,0,0-2.09-.55h-2.83l-2.45,0-1.77-2.81q1.56-.11,3.27-.18C152,409,153.3,409,154.69,409Zm-3.07.26v17.94h-4V409.28Z"/><path d="M175.39,419.32l0,2.15-5.72,0a1.26,1.26,0,0,0-1,.34,1.31,1.31,0,0,0-.3.91v.62a1.33,1.33,0,0,0,.36,1,1.64,1.64,0,0,0,1.17.35,4.37,4.37,0,0,0,1.47-.28,7.17,7.17,0,0,0,1.58-.81,6.65,6.65,0,0,0,1.37-1.22v1.66a8.43,8.43,0,0,1-.69,1,6.54,6.54,0,0,1-1.15,1.14,7.05,7.05,0,0,1-1.64.95,5.5,5.5,0,0,1-2.13.39,5.29,5.29,0,0,1-2.11-.41,3.44,3.44,0,0,1-1.48-1.23,3.49,3.49,0,0,1-.55-2v-1.32a3,3,0,0,1,1-2.4,4.39,4.39,0,0,1,2.86-.85ZM172,414a7.52,7.52,0,0,1,2.73.43,3.22,3.22,0,0,1,1.71,1.45,5.75,5.75,0,0,1,.58,2.82v8.48H173.9l-.54-2.78-.26-.39v-5.33a1.81,1.81,0,0,0-.43-1.33A2.37,2.37,0,0,0,171,417c-.66,0-1.48,0-2.47.07s-2,.1-3,.17l-.36-2.55c.62-.12,1.34-.22,2.16-.31s1.62-.16,2.44-.22S171.31,414,172,414Z"/><path d="M188.59,414.38v2.52h-9.7v-2.4l2.5-.12ZM185,410.81v12.3a1.29,1.29,0,0,0,.33,1,1.58,1.58,0,0,0,1.08.3h1.66l.42,2.6a6.53,6.53,0,0,1-1.15.27c-.45.08-.9.14-1.35.19s-.83.06-1.14.06a3.75,3.75,0,0,1-2.72-.94,3.44,3.44,0,0,1-1-2.62l0-13.16Z"/><path d="M200.87,419.32l0,2.15-5.72,0a1.26,1.26,0,0,0-1,.34,1.31,1.31,0,0,0-.3.91v.62a1.33,1.33,0,0,0,.36,1,1.64,1.64,0,0,0,1.17.35,4.37,4.37,0,0,0,1.47-.28,6.9,6.9,0,0,0,1.57-.81,6.46,6.46,0,0,0,1.38-1.22v1.66a8.43,8.43,0,0,1-.69,1,6.9,6.9,0,0,1-1.15,1.14,7.05,7.05,0,0,1-1.64.95,5.5,5.5,0,0,1-2.13.39,5.26,5.26,0,0,1-2.11-.41,3.44,3.44,0,0,1-1.48-1.23,3.49,3.49,0,0,1-.55-2v-1.32a3,3,0,0,1,1-2.4,4.39,4.39,0,0,1,2.86-.85ZM197.43,414a7.52,7.52,0,0,1,2.73.43,3.22,3.22,0,0,1,1.71,1.45,5.75,5.75,0,0,1,.58,2.82v8.48h-3.07l-.54-2.78-.26-.39v-5.33a1.81,1.81,0,0,0-.43-1.33,2.37,2.37,0,0,0-1.63-.42c-.66,0-1.48,0-2.47.07s-2,.1-3,.17l-.36-2.55c.62-.12,1.34-.22,2.15-.31s1.63-.16,2.45-.22S196.79,414,197.43,414Z"/><path d="M129,445.58l.39,2.54.39.34v10h-3.85V445.58Zm5.2-.34a3.57,3.57,0,0,1,2.61.89,3.62,3.62,0,0,1,.9,2.67v9.62H134V450a1.55,1.55,0,0,0-.35-1.17,1.47,1.47,0,0,0-1.08-.34,3.7,3.7,0,0,0-.87.11,5.6,5.6,0,0,0-1,.41c-.38.19-.83.46-1.37.8l-.23-2.13a10.81,10.81,0,0,1,2.47-1.83A5.57,5.57,0,0,1,134.18,445.24Zm8,0a3.19,3.19,0,0,1,3.57,3.56v9.62h-3.83V450a1.71,1.71,0,0,0-.31-1.16,1.39,1.39,0,0,0-1.09-.35,2.8,2.8,0,0,0-.88.13,5.55,5.55,0,0,0-1,.41q-.54.29-1.32.78l-.21-2.13a10.16,10.16,0,0,1,2.46-1.83A5.57,5.57,0,0,1,142.18,445.24Z"/><path d="M154.9,445.24a7.71,7.71,0,0,1,4.66,1.1,3.9,3.9,0,0,1,1.42,3.29,3.43,3.43,0,0,1-.88,2.64,4.53,4.53,0,0,1-3.15.87h-7.17V451h6.11c.58,0,1-.12,1.13-.37a2,2,0,0,0,.24-1.06,1.47,1.47,0,0,0-.53-1.26,3.12,3.12,0,0,0-1.7-.35,4,4,0,0,0-1.67.29,1.62,1.62,0,0,0-.83,1.09,9.22,9.22,0,0,0-.23,2.34,8.4,8.4,0,0,0,.28,2.48,1.93,1.93,0,0,0,1,1.21,4.35,4.35,0,0,0,1.91.34c.59,0,1.32,0,2.2-.07s1.75-.11,2.64-.22l.36,2.37a7.89,7.89,0,0,1-1.72.57,15.85,15.85,0,0,1-2,.3q-1,.09-1.95.09a9.29,9.29,0,0,1-3.94-.71,4.33,4.33,0,0,1-2.16-2.2,9.39,9.39,0,0,1-.66-3.8,9.81,9.81,0,0,1,.67-4,4.09,4.09,0,0,1,2.14-2.13A9.34,9.34,0,0,1,154.9,445.24Z"/><path d="M166.55,445.58l.39,2.54.39.34v10h-3.85V445.58Zm5.2-.34a3.57,3.57,0,0,1,2.61.89,3.62,3.62,0,0,1,.9,2.67v9.62h-3.7V450a1.55,1.55,0,0,0-.35-1.17,1.47,1.47,0,0,0-1.08-.34,3.7,3.7,0,0,0-.87.11,5.6,5.6,0,0,0-1,.41c-.38.19-.83.46-1.37.8l-.23-2.13a10.81,10.81,0,0,1,2.47-1.83A5.57,5.57,0,0,1,171.75,445.24Zm8,0a3.19,3.19,0,0,1,3.57,3.56v9.62h-3.83V450a1.71,1.71,0,0,0-.31-1.16,1.39,1.39,0,0,0-1.09-.35,2.8,2.8,0,0,0-.88.13,5.55,5.55,0,0,0-1,.41q-.54.29-1.32.78l-.21-2.13a10.16,10.16,0,0,1,2.46-1.83A5.57,5.57,0,0,1,179.75,445.24Z"/><path d="M192.49,445.24a9.51,9.51,0,0,1,3.88.66,4,4,0,0,1,2.09,2.14,10.18,10.18,0,0,1,.64,4,10,10,0,0,1-.64,3.93,3.93,3.93,0,0,1-2.09,2.13,11.85,11.85,0,0,1-7.74,0,4,4,0,0,1-2.12-2.13,10,10,0,0,1-.65-3.93,10.16,10.16,0,0,1,.65-4,4.1,4.1,0,0,1,2.12-2.14A9.53,9.53,0,0,1,192.49,445.24Zm0,2.8a3.14,3.14,0,0,0-1.56.34,1.88,1.88,0,0,0-.8,1.2,9.56,9.56,0,0,0-.24,2.44,9.44,9.44,0,0,0,.24,2.42,1.79,1.79,0,0,0,.8,1.18,3.85,3.85,0,0,0,3.12,0,1.8,1.8,0,0,0,.81-1.18,9.52,9.52,0,0,0,.23-2.42,9.64,9.64,0,0,0-.23-2.44,1.9,1.9,0,0,0-.81-1.2A3.11,3.11,0,0,0,192.49,448Z"/><path d="M204.74,445.58l.47,2.54.36.34v10h-3.85V445.58Zm6.27-.34-.37,3.56h-1.06a7.61,7.61,0,0,0-1.9.26c-.66.17-1.49.43-2.5.78l-.26-2.16a11,11,0,0,1,2.73-1.82,6.56,6.56,0,0,1,2.68-.62Z"/><path d="M215.56,445.58,218,453.9l.21,1q.1.5.18,1h.7l-1.22,2.55h-.94a1.28,1.28,0,0,1-.78-.26,1.3,1.3,0,0,1-.46-.68l-4.24-11.9Zm10.19,0-4.6,13a10,10,0,0,1-.88,1.93,7.38,7.38,0,0,1-1.4,1.76,5.6,5.6,0,0,1-2,1.18,6.28,6.28,0,0,1-2.79.2l-.29-2.19a6.69,6.69,0,0,0,2.47-1.12,4.61,4.61,0,0,0,1.38-1.84l.81-1.8a13.51,13.51,0,0,0,.45-1.39c.15-.54.27-1,.38-1.41l2.39-8.32Z"/><polyline class="h" points="547.11 372.05 547.11 350.22 696.09 350.22 696.09 372.05"/><polyline class="h" points="547.11 520.76 547.11 498.93 696.09 498.93 696.09 520.76"/><path class="h" d="M249.82,529.5V554c0,4.56-6.29,8.26-14,8.28H114.86c-7.73,0-14-3.72-14-8.28V529.5"/><polyline class="h" points="249.82 468.45 249.82 492.28 100.83 492.28 100.83 468.45"/><path class="h" d="M99.94,342.73V319.48c0-4.33,6.29-7.84,14-7.85H234.89c7.74,0,14,3.52,14,7.85v23.25"/><polyline class="h" points="99.94 403.45 99.94 381.63 248.92 381.63 248.92 403.45"/><polyline class="h" points="100.83 373.09 100.83 351.27 249.82 351.27 249.82 373.09"/><polyline class="h" points="100.83 521.8 100.83 499.98 249.82 499.98 249.82 521.8"/><rect class="d" x="608.57" y="145.79" width="126.14" height="96.08" rx="21.82"/><path d="M651.12,174v13.8h-3V174Z"/><path d="M656.1,178l.34,2,.24.26v7.66h-3V178Zm4.5-.26c1.87,0,2.8.91,2.8,2.74v7.4h-3v-6.48a1.32,1.32,0,0,0-.24-.91,1.09,1.09,0,0,0-.82-.25,3.79,3.79,0,0,0-1.32.25,15.64,15.64,0,0,0-1.68.77l-.14-1.66a8.77,8.77,0,0,1,2.17-1.38A5.49,5.49,0,0,1,660.6,177.7Z"/><path d="M668.14,178l.28,1.8.28.3v6.42l-.1.24c0,.4.07.82.09,1.25s0,.86,0,1.29v2.38h-3V178Zm4.1-.24a2.83,2.83,0,0,1,2.66,1.36,7.72,7.72,0,0,1,.8,3.9,9.17,9.17,0,0,1-.41,3.1,2.72,2.72,0,0,1-1.24,1.57,4.29,4.29,0,0,1-2.07.45,6.77,6.77,0,0,1-2-.3,4.26,4.26,0,0,1-1.7-1l.2-1.32,1.21.35a4.81,4.81,0,0,0,1.25.15,2,2,0,0,0,1-.22,1.31,1.31,0,0,0,.55-.87,7.58,7.58,0,0,0,.17-1.89,8.12,8.12,0,0,0-.16-1.87,1.46,1.46,0,0,0-.52-.9A1.58,1.58,0,0,0,671,180a2.75,2.75,0,0,0-1.18.25,8.73,8.73,0,0,0-1.22.71l-.38-1.36a4.14,4.14,0,0,1,1-1,5.4,5.4,0,0,1,1.39-.66A5.18,5.18,0,0,1,672.24,177.72Z"/><path d="M680.64,178v6.5a1.19,1.19,0,0,0,.27.88,1.24,1.24,0,0,0,.87.26,3.48,3.48,0,0,0,1.23-.23,11.68,11.68,0,0,0,1.51-.73l.24,1.62a8.61,8.61,0,0,1-2.12,1.4,5.31,5.31,0,0,1-2.14.46q-2.82,0-2.82-2.76V178Zm6.54,0v9.88h-2.34l-.34-1.94-.28-.28V178Z"/><path d="M696.22,178v1.94h-7.46v-1.84l1.92-.1Zm-2.76-2.74v9.46a1,1,0,0,0,.25.77,1.23,1.23,0,0,0,.83.23h1.28l.32,2a6,6,0,0,1-.88.21c-.35.06-.69.11-1,.14s-.64.05-.88.05a2.9,2.9,0,0,1-2.09-.72,2.66,2.66,0,0,1-.75-2l0-10.12Z"/><path d="M640.26,201.7a6.7,6.7,0,0,1,2,.3,4.42,4.42,0,0,1,1.71,1l-.2,1.36-1.22-.36a4.33,4.33,0,0,0-1.26-.16,2,2,0,0,0-1,.22,1.37,1.37,0,0,0-.56.86,7.52,7.52,0,0,0-.18,1.9,7.26,7.26,0,0,0,.17,1.79,1.4,1.4,0,0,0,.54.84,1.83,1.83,0,0,0,1,.23,3.35,3.35,0,0,0,.9-.11,3,3,0,0,0,.76-.34c.26-.15.54-.34.86-.57l.22,1.46a5.06,5.06,0,0,1-1.56,1.41,4.53,4.53,0,0,1-2.36.57,2.9,2.9,0,0,1-2.71-1.36,7.71,7.71,0,0,1-.81-3.9,9.32,9.32,0,0,1,.41-3.09,2.84,2.84,0,0,1,1.25-1.57A4.27,4.27,0,0,1,640.26,201.7Zm6.14-3.86v14h-2.34l-.3-1.82-.32-.22v-6.48l.12-.26c0-.41-.07-.83-.09-1.25s0-.85,0-1.29v-2.68Z"/><path d="M653.5,201.7a5.87,5.87,0,0,1,3.59.85,3,3,0,0,1,1.09,2.53,2.59,2.59,0,0,1-.68,2,3.43,3.43,0,0,1-2.42.67h-5.52v-1.66h4.7c.45,0,.74-.1.87-.29a1.43,1.43,0,0,0,.19-.81,1.13,1.13,0,0,0-.41-1,2.39,2.39,0,0,0-1.31-.27,3,3,0,0,0-1.28.22,1.29,1.29,0,0,0-.64.84,6.81,6.81,0,0,0-.18,1.8,6.65,6.65,0,0,0,.22,1.91,1.49,1.49,0,0,0,.75.93,3.49,3.49,0,0,0,1.47.26c.46,0,1,0,1.69-.05s1.35-.09,2-.17l.28,1.82a5.68,5.68,0,0,1-1.32.44,14.62,14.62,0,0,1-1.52.23c-.52.05-1,.07-1.5.07a7,7,0,0,1-3-.55,3.37,3.37,0,0,1-1.66-1.69,7.18,7.18,0,0,1-.51-2.92,7.66,7.66,0,0,1,.52-3.08,3.2,3.2,0,0,1,1.64-1.64A7.37,7.37,0,0,1,653.5,201.7Z"/><path d="M670,202l-3.26,9.18a1.13,1.13,0,0,1-.37.51.91.91,0,0,1-.59.19h-2.58a1,1,0,0,1-.59-.19,1.2,1.2,0,0,1-.37-.51L658.94,202h3.14l1.82,6.18c.08.29.16.59.22.9s.14.6.2.88h.26c.08-.29.16-.59.23-.89s.15-.6.23-.89l1.78-6.18Z"/><path d="M673.52,197.6a.79.79,0,0,1,.88.9v1.06a.79.79,0,0,1-.88.9h-1.28a.79.79,0,0,1-.88-.9V198.5a.79.79,0,0,1,.88-.9Zm.82,4.36v9.88H671.4V202Z"/><path d="M681.44,201.7c.36,0,.76,0,1.18.05a9.53,9.53,0,0,1,1.29.18,5.72,5.72,0,0,1,1.19.37l-.32,1.86-1.53,0-1.31,0a3.46,3.46,0,0,0-1.42.24,1.48,1.48,0,0,0-.75.85,5,5,0,0,0-.23,1.69,5.2,5.2,0,0,0,.23,1.72,1.5,1.5,0,0,0,.75.86,3.46,3.46,0,0,0,1.42.24l.82,0,1.08-.05c.39,0,.77-.06,1.14-.11l.28,1.88a7.2,7.2,0,0,1-1.82.52,13.86,13.86,0,0,1-2,.16,7,7,0,0,1-2.93-.51,3.09,3.09,0,0,1-1.57-1.65,9.77,9.77,0,0,1,0-6.08,3.08,3.08,0,0,1,1.59-1.64A7.23,7.23,0,0,1,681.44,201.7Z"/><path d="M691.58,201.7a5.87,5.87,0,0,1,3.59.85,3,3,0,0,1,1.09,2.53,2.59,2.59,0,0,1-.68,2,3.43,3.43,0,0,1-2.42.67h-5.52v-1.66h4.7c.45,0,.74-.1.87-.29a1.43,1.43,0,0,0,.19-.81,1.13,1.13,0,0,0-.41-1,2.39,2.39,0,0,0-1.31-.27,3,3,0,0,0-1.28.22,1.29,1.29,0,0,0-.64.84,6.81,6.81,0,0,0-.18,1.8,6.65,6.65,0,0,0,.22,1.91,1.49,1.49,0,0,0,.75.93,3.49,3.49,0,0,0,1.47.26c.46,0,1,0,1.69-.05s1.35-.09,2-.17l.28,1.82a5.68,5.68,0,0,1-1.32.44,14.62,14.62,0,0,1-1.52.23c-.52.05-1,.07-1.5.07a7,7,0,0,1-3-.55,3.37,3.37,0,0,1-1.66-1.69,7.18,7.18,0,0,1-.51-2.92,7.66,7.66,0,0,1,.52-3.08,3.2,3.2,0,0,1,1.64-1.64A7.37,7.37,0,0,1,691.58,201.7Z"/><path d="M701.94,201.7c.48,0,1,0,1.56.05s1.11.08,1.64.13a14.28,14.28,0,0,1,1.42.2l-.2,1.84-1.93,0h-1.89a10.68,10.68,0,0,0-1.2,0,1.1,1.1,0,0,0-.59.19.7.7,0,0,0-.17.53.6.6,0,0,0,.3.59,5.74,5.74,0,0,0,1,.33l2.58.62a3.76,3.76,0,0,1,1.84,1,2.65,2.65,0,0,1,.6,1.89,3.27,3.27,0,0,1-.46,1.9,2.39,2.39,0,0,1-1.46.91,10.69,10.69,0,0,1-2.58.25c-.41,0-1,0-1.84-.06a24.12,24.12,0,0,1-2.68-.3l.2-1.84.92,0h2.54c.68,0,1.2,0,1.56-.05a1.28,1.28,0,0,0,.74-.23.67.67,0,0,0,.2-.54.6.6,0,0,0-.34-.6,5.56,5.56,0,0,0-1.08-.34l-2.5-.62a4.23,4.23,0,0,1-1.46-.66,2.19,2.19,0,0,1-.73-1,4.09,4.09,0,0,1-.21-1.38,2.91,2.91,0,0,1,.41-1.63,2.38,2.38,0,0,1,1.34-.89A8.74,8.74,0,0,1,701.94,201.7Z"/><line class="f" x1="608.57" y1="192.83" x2="517.72" y2="192.83"/><polygon class="g" points="520.66 182.8 503.3 192.82 520.66 202.85 520.66 182.8"/><line class="f" x1="397.51" y1="129.23" x2="397.51" y2="105.71"/><polygon class="g" points="407.54 126.3 397.52 143.66 387.49 126.3 407.54 126.3"/><polygon class="g" points="407.54 108.64 397.52 91.29 387.49 108.64 407.54 108.64"/></svg>