<svg id="Layer_1" data-name="Layer 1" xmlns="http://www.w3.org/2000/svg" xmlns:xlink="http://www.w3.org/1999/xlink" viewBox="0 0 171.04 74.82"><defs><style>.cls-1{fill:#2d2628;stroke-width:2.79px;stroke:url(#linear-gradient);}.cls-1,.cls-10,.cls-2,.cls-3,.cls-4,.cls-5,.cls-6,.cls-7,.cls-8,.cls-9{stroke-miterlimit:10;}.cls-2,.cls-3,.cls-4,.cls-5,.cls-6,.cls-7,.cls-8,.cls-9{fill:#e2c9ce;}.cls-2{stroke:url(#linear-gradient-2);}.cls-3{stroke:url(#linear-gradient-3);}.cls-4{stroke:url(#linear-gradient-4);}.cls-5{stroke:url(#linear-gradient-5);}.cls-6{stroke:url(#linear-gradient-6);}.cls-7{stroke:url(#linear-gradient-7);}.cls-8{stroke:url(#linear-gradient-8);}.cls-9{stroke:url(#linear-gradient-9);}.cls-10{fill:#eaacb3;stroke:#b25e12;stroke-width:0.37px;}</style><linearGradient id="linear-gradient" x1="-10.87" y1="38.47" x2="188.44" y2="38.47" gradientUnits="userSpaceOnUse"><stop offset="0" stop-color="#f39200"/><stop offset="1" stop-color="#e94e1b"/></linearGradient><linearGradient id="linear-gradient-2" x1="14.82" y1="26.72" x2="62.49" y2="26.72" gradientUnits="userSpaceOnUse"><stop offset="0" stop-color="#f15a29"/><stop offset="1" stop-color="#594a42"/></linearGradient><linearGradient id="linear-gradient-3" x1="36.29" y1="31.6" x2="81.37" y2="31.6" xlink:href="#linear-gradient-2"/><linearGradient id="linear-gradient-4" x1="57.95" y1="15.29" x2="83.85" y2="15.29" xlink:href="#linear-gradient-2"/><linearGradient id="linear-gradient-5" x1="68.37" y1="23.69" x2="97.98" y2="23.69" xlink:href="#linear-gradient-2"/><linearGradient id="linear-gradient-6" x1="93.72" y1="27.07" x2="164.35" y2="27.07" xlink:href="#linear-gradient-2"/><linearGradient id="linear-gradient-7" x1="97.58" y1="27.72" x2="119.47" y2="27.72" xlink:href="#linear-gradient-2"/><linearGradient id="linear-gradient-8" x1="96.21" y1="9.49" x2="116" y2="9.49" xlink:href="#linear-gradient-2"/><linearGradient id="linear-gradient-9" x1="83.89" y1="6.8" x2="104.47" y2="6.8" xlink:href="#linear-gradient-2"/></defs><title>logo</title><rect class="cls-1" x="-9.47" y="-13" width="196.52" height="102.94"/><path class="cls-2" d="M25.2,45.37s17.2,0.72,22.93-9.49a29.07,29.07,0,0,0,3-11.19S51.51,16.45,54,13.41c0,0,2-4.72,5.83-3.56,0,0,3.43,1-5.16,4.1l-0.93,1.61S60,13.31,61.07,12.1c0,0,2.8-2.82-1.35-4,0,0-6.91.76-11,5.23,0,0-.38,2.27-4.47,1.26,0,0-13.51-1.39-17.41,5.5,0,0,.56,5.1,7,3.45,0,0,6.75-1.78,2.08-4.52,0,0-2.23-.32-0.82,1,0,0,1.17,3-4,.87,0,0-1.9-5.44,12.29-5.1L46.15,16s-4.73,9.32-5.44,13.49a5,5,0,0,0-.08,1s-0.13,7.18-8.38,10.57c0,0-11.46,3.77-13.24-3.51,0,0-1.47-2.46,5.59-5.25,0,0,5.69-1.54,6.38,2.49,0,0,1.62,3.89-4.78,2.78,0,0-2.28-2.43.05-1.8,0,0,4.58.43,2.22-1.65a3.73,3.73,0,0,0-5.08,2.36s1.22,4.16,6.61,1.72c0,0,4.79-.8,3.46-4.78,0,0-2.25-6.61-15.61.71,0,0-7.67,6.42,3.69,11.06Z"/><path class="cls-3" d="M40.71,29.47s-5.18-1.54-3.64-3.77,5.73-2.48,5.73-2.48l9.55-.61a22.63,22.63,0,0,1,5.65,1,14,14,0,0,1,6,3.56s1.08,0.8,1.32,6.89c0,0,3.73,5.82,12.14-3.71a4.15,4.15,0,0,0,1.23-1.2s3.25-2.49,1.81,1.52S74,39.48,63.08,40.57c0,0-8.25-.26-7.81-10.19L55,28.49l-4.29,1.07,0.71-2.5s1.56,0.77,3-1.13c0,0-.25-3.12-3.3-1.8"/><path class="cls-4" d="M58.94,23.28s3.42-1,6.83-9.83,14.7-7.76,14.7-7.76S84.83,6,82.82,9.8c0,0-2.6,2.93-5.63-.27,0,0,2.12-2.94,2.93-.52l-0.7.84L81,9.74s1.92-2.06-.56-2.67c0,0-2.36-2.1-5.72,3.44,0,0-2.77,7.78-5.81,10.43,0,0-4.48,4.27-6.5,4A7.24,7.24,0,0,1,58.94,23.28Z"/><path class="cls-5" d="M71.47,38.77s5.29,1.48,4.94-4.9l0-19.87s2.45-4.92-6.37-3.81c0,0-4.26-2.67,3.34-1.32l12.54-.38H87L84.74,7.28l6.17,3.51-7.06.27V37.76l11.29,1.15,1.41,1.14H69.75l-0.18-1.29h1.9Z"/><path class="cls-6" d="M95,32.72s-4.23,6.39,7.41,9.76c0,0,12,2.42,21.7-3.71,0,0,7.23-6.94,7.94-8.83,0,0,6.53-11.08,13.41-13.5,0,0,11.73-.26,18.13-3l-1.72-2.16s-7.59,4.18-27.34,2.43c0,0-18.7-3.39-30.17,2.69,0,0-11.47,8.64,4.41,13.23l1.06-2.53s-11.64-3,2.29-11.21c0,0,4.23-1.37,18.35-.69l11.29,0.69s-9.53,5.19-10.06,7.78c0,0-7.06,8.74-8.11,9.85,0,0-5.86,7.35-15.35,7.45,0,0-13.23-.19-10.41-7.45Z"/><path class="cls-7" d="M99,37.49s15.35-2.7,10.41-19c0,0,.69-1.69,6.17-2.55,0,0,9.35,11.12-3.18,20.19,0,0-9,3.81-9.88,3.4Z"/><path class="cls-8" d="M106.09,14.83s5.47-2.28,6.17-2.09c0,0-6-3.44-10.23-3.58L104.5,6.6l-7.06,4.72s6.48,1.52,7.41,3Z"/><polygon class="cls-9" points="93.21 11.32 84.39 5.79 84.39 4.98 87.21 2.29 88.8 2.29 99.74 2.29 101.15 2.29 103.97 4.98 103.97 5.79 95.5 11.32 93.21 11.32"/><path class="cls-10" d="M51.55,58.51s8.68-3.87,17.87-2.73c0,0-6.86-5.54,4-8.6,0,0,5.7-1.13,8,.4,0,0,6.22-2.07,10.88.93,0,0,3.63,1.4,2.07,5.6,0,0,2.59,0,1.68.8,0,0,4.4-.87,4,0.27,0,0,7.77-.47,1.68,2.47L82.89,65.16s-6,.45-6.61,0L63.85,64l-6.09,1.8"/><path class="cls-10" d="M70.07,55.84a34.09,34.09,0,0,1,7.11,2.6H88.85s3.11,1.73-.78,2.93L77.18,61l-2.45.93H68.38"/><polyline class="cls-10" points="96.1 54.91 89.11 58.11 94.42 54.11"/><line class="cls-10" x1="90.02" y1="58.58" x2="100.12" y2="55.18"/><path class="cls-10" d="M80.56,46.77s1.5-2.93-2.3-3.26"/><path class="cls-10" d="M82.89,46.37s0.39-3.4,6.22-2.87c0,0-.07,2.42-5.18,2.87h-1Z"/></svg>