<svg id="Layer_1" data-name="Layer 1" xmlns="http://www.w3.org/2000/svg" xmlns:xlink="http://www.w3.org/1999/xlink" viewBox="0 0 171.043 87.632"><defs><style>.cls-1{fill:#2d2628;}.cls-2,.cls-3,.cls-4,.cls-5,.cls-6,.cls-7,.cls-8,.cls-9{fill:#e2c9ce;}.cls-10,.cls-2,.cls-3,.cls-4,.cls-5,.cls-6,.cls-7,.cls-8,.cls-9{stroke-miterlimit:10;}.cls-2{stroke:url(#linear-gradient);}.cls-3{stroke:url(#linear-gradient-2);}.cls-4{stroke:url(#linear-gradient-3);}.cls-5{stroke:url(#linear-gradient-4);}.cls-6{stroke:url(#linear-gradient-5);}.cls-7{stroke:url(#linear-gradient-6);}.cls-8{stroke:url(#linear-gradient-7);}.cls-9{stroke:url(#linear-gradient-8);}.cls-10{fill:#eaacb3;stroke:#b25e12;stroke-width:0.37px;}.cls-11{font-size:18.031px;fill:#efc5ca;font-family:Wide Latin;}</style><linearGradient id="linear-gradient" x1="14.816" y1="26.72" x2="62.493" y2="26.72" gradientUnits="userSpaceOnUse"><stop offset="0" stop-color="#f15a29"/><stop offset="1" stop-color="#594a42"/></linearGradient><linearGradient id="linear-gradient-2" x1="36.291" y1="31.596" x2="81.372" y2="31.596" xlink:href="#linear-gradient"/><linearGradient id="linear-gradient-3" x1="57.95" y1="15.287" x2="83.852" y2="15.287" xlink:href="#linear-gradient"/><linearGradient id="linear-gradient-4" x1="68.374" y1="23.694" x2="97.978" y2="23.694" xlink:href="#linear-gradient"/><linearGradient id="linear-gradient-5" x1="93.724" y1="27.067" x2="164.355" y2="27.067" xlink:href="#linear-gradient"/><linearGradient id="linear-gradient-6" x1="97.585" y1="27.717" x2="119.467" y2="27.717" xlink:href="#linear-gradient"/><linearGradient id="linear-gradient-7" x1="96.21" y1="9.487" x2="115.997" y2="9.487" xlink:href="#linear-gradient"/><linearGradient id="linear-gradient-8" x1="83.89" y1="6.804" x2="104.471" y2="6.804" xlink:href="#linear-gradient"/></defs><title>logo1</title><rect class="cls-1" x="-9.472" y="-13" width="196.516" height="102.936"/><path class="cls-2" d="M25.2,45.374s17.2,0.72,22.934-9.485A29.073,29.073,0,0,0,51.094,24.7s0.417-8.245,2.922-11.291c0,0,2.015-4.719,5.826-3.562,0,0,3.432,1-5.156,4.1l-0.931,1.609S59.991,13.31,61.07,12.1c0,0,2.8-2.821-1.346-4.038,0,0-6.911.756-10.964,5.232,0,0-.384,2.273-4.473,1.26,0,0-13.51-1.385-17.412,5.5,0,0,.558,5.1,7.024,3.455,0,0,6.748-1.784,2.082-4.518,0,0-2.228-.322-0.822.96,0,0,1.166,3.007-3.951.87,0,0-1.9-5.44,12.285-5.1l2.656,0.262s-4.734,9.323-5.436,13.488a5.046,5.046,0,0,0-.084,1.021S40.5,37.674,32.25,41.069c0,0-11.465,3.77-13.24-3.51,0,0-1.473-2.462,5.59-5.246,0,0,5.686-1.535,6.375,2.489,0,0,1.624,3.893-4.781,2.782,0,0-2.278-2.428.051-1.8,0,0,4.579.427,2.224-1.646A3.734,3.734,0,0,0,23.387,36.5s1.224,4.161,6.607,1.717c0,0,4.788-.8,3.463-4.777,0,0-2.252-6.609-15.608.71,0,0-7.671,6.418,3.688,11.062Z"/><path class="cls-3" d="M40.715,29.473s-5.179-1.543-3.637-3.766,5.728-2.481,5.728-2.481l9.552-.607a22.633,22.633,0,0,1,5.651,1.042,13.959,13.959,0,0,1,6,3.564s1.082,0.8,1.32,6.893c0,0,3.734,5.817,12.139-3.706a4.152,4.152,0,0,0,1.23-1.2s3.248-2.488,1.81,1.516-6.529,8.759-17.425,9.847c0,0-8.247-.261-7.806-10.187l-0.306-1.9-4.293,1.066,0.714-2.5s1.561,0.769,3.048-1.13c0,0-.25-3.119-3.3-1.8"/><path class="cls-4" d="M58.94,23.283s3.416-1.006,6.834-9.831,14.7-7.762,14.7-7.762S84.83,6.031,82.824,9.8c0,0-2.6,2.933-5.635-.268,0,0,2.119-2.938,2.927-.515l-0.7.837,1.592-.117s1.921-2.065-.563-2.668c0,0-2.356-2.1-5.715,3.441,0,0-2.774,7.784-5.808,10.427,0,0-4.477,4.27-6.5,3.974A7.242,7.242,0,0,1,58.94,23.283Z"/><path class="cls-5" d="M71.474,38.768s5.293,1.479,4.94-4.9l0.017-19.872s2.453-4.922-6.368-3.81c0,0-4.257-2.666,3.341-1.317l12.538-.381h1.095L84.743,7.276l6.174,3.507-7.056.27V37.761l11.29,1.155,1.411,1.139H69.748l-0.176-1.287h1.9Z"/><path class="cls-6" d="M94.974,32.72s-4.234,6.391,7.409,9.763c0,0,12,2.417,21.7-3.715,0,0,7.233-6.941,7.938-8.83,0,0,6.527-11.078,13.407-13.5,0,0,11.733-.261,18.127-2.959l-1.721-2.158s-7.585,4.182-27.343,2.428c0,0-18.7-3.389-30.165,2.689,0,0-11.466,8.641,4.41,13.228l1.058-2.53s-11.643-2.966,2.293-11.211c0,0,4.234-1.366,18.346-.691l11.29,0.691S132.2,21.112,131.666,23.7c0,0-7.056,8.74-8.115,9.847,0,0-5.859,7.354-15.347,7.447,0,0-13.23-.191-10.408-7.447Z"/><path class="cls-7" d="M99.031,37.492s15.347-2.7,10.408-19.019c0,0,.688-1.687,6.174-2.546,0,0,9.349,11.123-3.175,20.188,0,0-9,3.805-9.879,3.4Z"/><path class="cls-8" d="M106.088,14.83s5.469-2.285,6.174-2.087c0,0-6-3.444-10.231-3.579L104.5,6.6l-7.056,4.721s6.482,1.523,7.409,2.968Z"/><polygon class="cls-9" points="93.21 11.323 84.39 5.793 84.39 4.983 87.212 2.286 88.8 2.286 99.737 2.286 101.148 2.286 103.971 4.983 103.971 5.793 95.503 11.323 93.21 11.323"/><path class="cls-10" d="M51.547,58.511s8.678-3.868,17.873-2.734c0,0-6.864-5.535,4.015-8.6,0,0,5.7-1.134,8.03.4,0,0,6.217-2.067,10.879.934,0,0,3.626,1.4,2.072,5.6,0,0,2.59,0,1.684.8,0,0,4.4-.867,4.015.267,0,0,7.771-.467,1.684,2.468L82.89,65.163s-5.958.449-6.605,0L63.851,64.047l-6.087,1.8"/><path class="cls-10" d="M70.068,55.844a34.087,34.087,0,0,1,7.114,2.6H88.847s3.108,1.734-.777,2.934l-10.889-.4-2.451.934H68.384"/><polyline class="cls-10" points="96.1 54.91 89.106 58.111 94.417 54.11"/><line class="cls-10" x1="90.025" y1="58.578" x2="100.115" y2="55.177"/><path class="cls-10" d="M80.558,46.77s1.5-2.931-2.3-3.265"/><path class="cls-10" d="M82.89,46.373s0.389-3.4,6.217-2.868c0,0-.067,2.42-5.181,2.868H82.89Z"/><text class="cls-11" transform="translate(32.109 82.676) scale(0.238 1)">Kenneth Design And Tutoring</text></svg>